<svg width="362" height="83" viewBox="0 0 362 83" fill="none" xmlns="http://www.w3.org/2000/svg">
<g filter="url(#filter0_d_1_4)">
<mask id="path-1-outside-1_1_4" maskUnits="userSpaceOnUse" x="3.73657" y="-0.5625" width="354" height="75" fill="black">
<rect fill="white" x="3.73657" y="-0.5625" width="354" height="75"/>
<path d="M67.4553 5.96875L41.6741 41.9688L40.4553 71.3125H18.2366L18.7991 42.1562L5.39282 7.375L29.2991 4.375L33.0491 24.625L44.9553 4.375L67.4553 5.96875ZM121.408 3.4375C120.002 14.4375 118.799 25.3906 117.799 36.2969C116.799 47.1719 115.846 58.125 114.94 69.1562L95.7209 70.5625L96.5647 63.3438C95.9397 64.0625 95.2053 64.6875 94.3616 65.2188C93.5491 65.75 92.6741 66.1875 91.7366 66.5312C90.7991 66.8438 89.8303 67.0781 88.8303 67.2344C87.8303 67.3594 86.8772 67.4062 85.9709 67.375C83.8459 67.3438 81.8459 66.9375 79.9709 66.1562C78.0959 65.3438 76.3772 64.2812 74.8147 62.9688C73.2522 61.625 71.8459 60.0781 70.5959 58.3281C69.3459 56.5469 68.2834 54.6875 67.4084 52.75C66.5647 50.7812 65.9084 48.7812 65.4397 46.75C65.0022 44.7188 64.7834 42.75 64.7834 40.8438C64.7834 38.0312 64.8303 35.125 64.9241 32.125C65.0491 29.0938 65.2522 26.0625 65.5334 23.0312C65.8147 20 66.1741 17 66.6116 14.0312C67.0803 11.0625 67.6584 8.21875 68.3459 5.5C72.1584 5.6875 75.9866 5.85938 79.8303 6.01562C83.6741 6.17188 87.5022 6.21875 91.3147 6.15625C90.5959 8.875 89.8772 11.6094 89.1584 14.3594C88.4709 17.0781 87.8459 19.8281 87.2834 22.6094C86.7209 25.3594 86.2678 28.125 85.9241 30.9062C85.5803 33.6875 85.4084 36.5 85.4084 39.3438C85.4084 40 85.4397 40.9375 85.5022 42.1562C85.5647 43.375 85.7209 44.5781 85.9709 45.7656C86.2522 46.9531 86.6584 48 87.1897 48.9062C87.7522 49.7812 88.5334 50.2188 89.5334 50.2188C90.7209 50.2188 91.7834 49.7188 92.7209 48.7188C93.6584 47.6875 94.4866 46.3125 95.2053 44.5938C95.9241 42.875 96.5334 40.8906 97.0334 38.6406C97.5647 36.3906 98.0022 34.0469 98.3459 31.6094C98.7209 29.1406 99.0178 26.6562 99.2366 24.1562C99.4553 21.6562 99.6116 19.3125 99.7053 17.125C99.8303 14.9062 99.9084 12.9219 99.9397 11.1719C100.002 9.42188 100.033 8.0625 100.033 7.09375C100.033 6.46875 100.018 5.85938 99.9866 5.26562C99.9553 4.67188 99.9084 4.0625 99.8459 3.4375C101.877 3.5 103.893 3.54688 105.893 3.57812C107.893 3.60938 109.908 3.625 111.94 3.625C113.502 3.625 115.065 3.625 116.627 3.625C118.221 3.59375 119.815 3.53125 121.408 3.4375ZM196.69 1.09375L192.377 69.9062L171.002 70.8438L171.19 34.5625L161.533 63.8125H153.283L145.877 37.6562L145.783 68.0312L124.127 68.6875L125.065 3.90625L149.158 2.96875L158.721 34L171.471 1.09375H196.69ZM244.127 19.8438L222.658 46.9375H242.44L243.096 66.8125L201.283 68.5L199.408 50.125L223.877 20.125L199.596 21.8125L199.408 2.96875H243.283L244.127 19.8438ZM305.58 5.96875L283.549 41.9688L284.205 68.5H260.112L260.674 42.1562L243.518 7.375L267.424 4.375L274.924 24.625L283.08 4.375L305.58 5.96875ZM335.721 51.1562H319.877C319.658 47.8438 319.846 45.0781 320.44 42.8594C321.033 40.6094 321.83 38.75 322.83 37.2812C323.862 35.7812 325.002 34.5781 326.252 33.6719C327.533 32.7344 328.768 31.9375 329.955 31.2812C331.174 30.5938 332.237 29.9375 333.143 29.3125C334.08 28.6875 334.721 27.9062 335.065 26.9688C335.283 26.4062 335.346 25.7656 335.252 25.0469C335.158 24.2969 334.83 23.5938 334.268 22.9375C333.737 22.2812 332.924 21.7344 331.83 21.2969C330.768 20.8281 329.377 20.5938 327.658 20.5938C326.533 20.5938 325.19 20.7031 323.627 20.9219C322.096 21.1094 320.487 21.4219 318.799 21.8594C317.112 22.2656 315.44 22.7812 313.783 23.4062C312.158 24 310.69 24.6875 309.377 25.4688L307.315 7.09375C308.471 6.40625 309.768 5.70312 311.205 4.98438C312.674 4.23438 314.283 3.57812 316.033 3.01562C317.783 2.42188 319.69 1.9375 321.752 1.5625C323.815 1.1875 326.033 1 328.408 1C332.252 1 335.877 1.53125 339.283 2.59375C342.721 3.65625 345.721 5.21875 348.283 7.28125C350.846 9.34375 352.877 11.8906 354.377 14.9219C355.877 17.9219 356.627 21.375 356.627 25.2812C356.627 28.25 356.205 30.6406 355.362 32.4531C354.518 34.2344 353.44 35.7031 352.127 36.8594C350.815 38.0156 349.346 38.9844 347.721 39.7656C346.096 40.5469 344.502 41.4062 342.94 42.3438C341.408 43.25 339.987 44.375 338.674 45.7188C337.393 47.0625 336.408 48.875 335.721 51.1562ZM338.065 63.5312C338.065 64.9062 337.799 66.1875 337.268 67.375C336.737 68.5625 336.018 69.5938 335.112 70.4688C334.237 71.375 333.205 72.0781 332.018 72.5781C330.83 73.1094 329.565 73.375 328.221 73.375C326.846 73.375 325.565 73.1094 324.377 72.5781C323.19 72.0781 322.143 71.375 321.237 70.4688C320.362 69.5938 319.658 68.5625 319.127 67.375C318.627 66.1875 318.377 64.9062 318.377 63.5312C318.377 62.1875 318.627 60.9062 319.127 59.6875C319.658 58.4688 320.362 57.4219 321.237 56.5469C322.143 55.6406 323.19 54.9219 324.377 54.3906C325.565 53.8594 326.846 53.5938 328.221 53.5938C329.565 53.5938 330.83 53.8594 332.018 54.3906C333.205 54.9219 334.237 55.6406 335.112 56.5469C336.018 57.4219 336.737 58.4688 337.268 59.6875C337.799 60.9062 338.065 62.1875 338.065 63.5312Z"/>
</mask>
<path d="M67.4553 5.96875L41.6741 41.9688L40.4553 71.3125H18.2366L18.7991 42.1562L5.39282 7.375L29.2991 4.375L33.0491 24.625L44.9553 4.375L67.4553 5.96875ZM121.408 3.4375C120.002 14.4375 118.799 25.3906 117.799 36.2969C116.799 47.1719 115.846 58.125 114.94 69.1562L95.7209 70.5625L96.5647 63.3438C95.9397 64.0625 95.2053 64.6875 94.3616 65.2188C93.5491 65.75 92.6741 66.1875 91.7366 66.5312C90.7991 66.8438 89.8303 67.0781 88.8303 67.2344C87.8303 67.3594 86.8772 67.4062 85.9709 67.375C83.8459 67.3438 81.8459 66.9375 79.9709 66.1562C78.0959 65.3438 76.3772 64.2812 74.8147 62.9688C73.2522 61.625 71.8459 60.0781 70.5959 58.3281C69.3459 56.5469 68.2834 54.6875 67.4084 52.75C66.5647 50.7812 65.9084 48.7812 65.4397 46.75C65.0022 44.7188 64.7834 42.75 64.7834 40.8438C64.7834 38.0312 64.8303 35.125 64.9241 32.125C65.0491 29.0938 65.2522 26.0625 65.5334 23.0312C65.8147 20 66.1741 17 66.6116 14.0312C67.0803 11.0625 67.6584 8.21875 68.3459 5.5C72.1584 5.6875 75.9866 5.85938 79.8303 6.01562C83.6741 6.17188 87.5022 6.21875 91.3147 6.15625C90.5959 8.875 89.8772 11.6094 89.1584 14.3594C88.4709 17.0781 87.8459 19.8281 87.2834 22.6094C86.7209 25.3594 86.2678 28.125 85.9241 30.9062C85.5803 33.6875 85.4084 36.5 85.4084 39.3438C85.4084 40 85.4397 40.9375 85.5022 42.1562C85.5647 43.375 85.7209 44.5781 85.9709 45.7656C86.2522 46.9531 86.6584 48 87.1897 48.9062C87.7522 49.7812 88.5334 50.2188 89.5334 50.2188C90.7209 50.2188 91.7834 49.7188 92.7209 48.7188C93.6584 47.6875 94.4866 46.3125 95.2053 44.5938C95.9241 42.875 96.5334 40.8906 97.0334 38.6406C97.5647 36.3906 98.0022 34.0469 98.3459 31.6094C98.7209 29.1406 99.0178 26.6562 99.2366 24.1562C99.4553 21.6562 99.6116 19.3125 99.7053 17.125C99.8303 14.9062 99.9084 12.9219 99.9397 11.1719C100.002 9.42188 100.033 8.0625 100.033 7.09375C100.033 6.46875 100.018 5.85938 99.9866 5.26562C99.9553 4.67188 99.9084 4.0625 99.8459 3.4375C101.877 3.5 103.893 3.54688 105.893 3.57812C107.893 3.60938 109.908 3.625 111.94 3.625C113.502 3.625 115.065 3.625 116.627 3.625C118.221 3.59375 119.815 3.53125 121.408 3.4375ZM196.69 1.09375L192.377 69.9062L171.002 70.8438L171.19 34.5625L161.533 63.8125H153.283L145.877 37.6562L145.783 68.0312L124.127 68.6875L125.065 3.90625L149.158 2.96875L158.721 34L171.471 1.09375H196.69ZM244.127 19.8438L222.658 46.9375H242.44L243.096 66.8125L201.283 68.5L199.408 50.125L223.877 20.125L199.596 21.8125L199.408 2.96875H243.283L244.127 19.8438ZM305.58 5.96875L283.549 41.9688L284.205 68.5H260.112L260.674 42.1562L243.518 7.375L267.424 4.375L274.924 24.625L283.08 4.375L305.58 5.96875ZM335.721 51.1562H319.877C319.658 47.8438 319.846 45.0781 320.44 42.8594C321.033 40.6094 321.83 38.75 322.83 37.2812C323.862 35.7812 325.002 34.5781 326.252 33.6719C327.533 32.7344 328.768 31.9375 329.955 31.2812C331.174 30.5938 332.237 29.9375 333.143 29.3125C334.08 28.6875 334.721 27.9062 335.065 26.9688C335.283 26.4062 335.346 25.7656 335.252 25.0469C335.158 24.2969 334.83 23.5938 334.268 22.9375C333.737 22.2812 332.924 21.7344 331.83 21.2969C330.768 20.8281 329.377 20.5938 327.658 20.5938C326.533 20.5938 325.19 20.7031 323.627 20.9219C322.096 21.1094 320.487 21.4219 318.799 21.8594C317.112 22.2656 315.44 22.7812 313.783 23.4062C312.158 24 310.69 24.6875 309.377 25.4688L307.315 7.09375C308.471 6.40625 309.768 5.70312 311.205 4.98438C312.674 4.23438 314.283 3.57812 316.033 3.01562C317.783 2.42188 319.69 1.9375 321.752 1.5625C323.815 1.1875 326.033 1 328.408 1C332.252 1 335.877 1.53125 339.283 2.59375C342.721 3.65625 345.721 5.21875 348.283 7.28125C350.846 9.34375 352.877 11.8906 354.377 14.9219C355.877 17.9219 356.627 21.375 356.627 25.2812C356.627 28.25 356.205 30.6406 355.362 32.4531C354.518 34.2344 353.44 35.7031 352.127 36.8594C350.815 38.0156 349.346 38.9844 347.721 39.7656C346.096 40.5469 344.502 41.4062 342.94 42.3438C341.408 43.25 339.987 44.375 338.674 45.7188C337.393 47.0625 336.408 48.875 335.721 51.1562ZM338.065 63.5312C338.065 64.9062 337.799 66.1875 337.268 67.375C336.737 68.5625 336.018 69.5938 335.112 70.4688C334.237 71.375 333.205 72.0781 332.018 72.5781C330.83 73.1094 329.565 73.375 328.221 73.375C326.846 73.375 325.565 73.1094 324.377 72.5781C323.19 72.0781 322.143 71.375 321.237 70.4688C320.362 69.5938 319.658 68.5625 319.127 67.375C318.627 66.1875 318.377 64.9062 318.377 63.5312C318.377 62.1875 318.627 60.9062 319.127 59.6875C319.658 58.4688 320.362 57.4219 321.237 56.5469C322.143 55.6406 323.19 54.9219 324.377 54.3906C325.565 53.8594 326.846 53.5938 328.221 53.5938C329.565 53.5938 330.83 53.8594 332.018 54.3906C333.205 54.9219 334.237 55.6406 335.112 56.5469C336.018 57.4219 336.737 58.4688 337.268 59.6875C337.799 60.9062 338.065 62.1875 338.065 63.5312Z" fill="white"/>
<path d="M67.4553 5.96875L68.2683 6.55099L69.3092 5.09756L67.526 4.97125L67.4553 5.96875ZM41.6741 41.9688L40.8611 41.3865L40.6873 41.6291L40.6749 41.9273L41.6741 41.9688ZM40.4553 71.3125V72.3125H41.4147L41.4545 71.354L40.4553 71.3125ZM18.2366 71.3125L17.2368 71.2932L17.2171 72.3125H18.2366V71.3125ZM18.7991 42.1562L19.7989 42.1755L19.8027 41.9795L19.7322 41.7966L18.7991 42.1562ZM5.39282 7.375L5.26831 6.38278L4.00001 6.54194L4.45974 7.73465L5.39282 7.375ZM29.2991 4.375L30.2824 4.19291L30.1106 3.26532L29.1746 3.38278L29.2991 4.375ZM33.0491 24.625L32.0658 24.8071L32.5535 27.4408L33.9111 25.1318L33.0491 24.625ZM44.9553 4.375L45.026 3.3775L44.4075 3.33369L44.0933 3.86815L44.9553 4.375ZM67.4553 5.96875L66.6423 5.38651L40.8611 41.3865L41.6741 41.9688L42.4871 42.551L68.2683 6.55099L67.4553 5.96875ZM41.6741 41.9688L40.6749 41.9273L39.4562 71.271L40.4553 71.3125L41.4545 71.354L42.6732 42.0102L41.6741 41.9688ZM40.4553 71.3125V70.3125H18.2366V71.3125V72.3125H40.4553V71.3125ZM18.2366 71.3125L19.2364 71.3318L19.7989 42.1755L18.7991 42.1562L17.7993 42.137L17.2368 71.2932L18.2366 71.3125ZM18.7991 42.1562L19.7322 41.7966L6.32591 7.01535L5.39282 7.375L4.45974 7.73465L17.866 42.5159L18.7991 42.1562ZM5.39282 7.375L5.51734 8.36722L29.4236 5.36722L29.2991 4.375L29.1746 3.38278L5.26831 6.38278L5.39282 7.375ZM29.2991 4.375L28.3158 4.55709L32.0658 24.8071L33.0491 24.625L34.0324 24.4429L30.2824 4.19291L29.2991 4.375ZM33.0491 24.625L33.9111 25.1318L45.8174 4.88185L44.9553 4.375L44.0933 3.86815L32.187 24.1182L33.0491 24.625ZM44.9553 4.375L44.8847 5.3725L67.3847 6.96625L67.4553 5.96875L67.526 4.97125L45.026 3.3775L44.9553 4.375ZM121.408 3.4375L122.4 3.56431L122.553 2.36843L121.35 2.43923L121.408 3.4375ZM117.799 36.2969L118.795 36.3884L118.795 36.3882L117.799 36.2969ZM114.94 69.1562L115.013 70.1536L115.866 70.0911L115.936 69.2381L114.94 69.1562ZM95.7209 70.5625L94.7277 70.4464L94.5872 71.6481L95.7939 71.5598L95.7209 70.5625ZM96.5647 63.3438L97.5579 63.4598L97.9336 60.2455L95.8101 62.6876L96.5647 63.3438ZM94.3616 65.2188L93.8288 64.3725L93.8215 64.3771L93.8143 64.3818L94.3616 65.2188ZM91.7366 66.5312L92.0528 67.4799L92.0669 67.4752L92.0808 67.4701L91.7366 66.5312ZM88.8303 67.2344L88.9544 68.2267L88.9696 68.2248L88.9847 68.2224L88.8303 67.2344ZM85.9709 67.375L86.0054 66.3756L85.9955 66.3753L85.9857 66.3751L85.9709 67.375ZM79.9709 66.1562L79.5733 67.0739L79.5863 67.0793L79.9709 66.1562ZM74.8147 62.9688L74.1626 63.727L74.1715 63.7345L74.8147 62.9688ZM70.5959 58.3281L69.7774 58.9026L69.7822 58.9094L70.5959 58.3281ZM67.4084 52.75L66.4893 53.1439L66.4931 53.1528L66.4971 53.1616L67.4084 52.75ZM65.4397 46.75L64.4621 46.9606L64.4637 46.9677L64.4653 46.9749L65.4397 46.75ZM64.9241 32.125L63.9249 32.0838L63.9246 32.0938L64.9241 32.125ZM66.6116 14.0312L65.6238 13.8753L65.6223 13.8855L66.6116 14.0312ZM68.3459 5.5L68.3951 4.50121L67.5772 4.46098L67.3765 5.25484L68.3459 5.5ZM91.3147 6.15625L92.2815 6.41184L92.6191 5.13473L91.2983 5.15638L91.3147 6.15625ZM89.1584 14.3594L88.1909 14.1065L88.189 14.1142L89.1584 14.3594ZM87.2834 22.6094L88.2632 22.8098L88.2636 22.8076L87.2834 22.6094ZM85.9709 45.7656L84.9924 45.9716L84.995 45.9839L84.9979 45.9961L85.9709 45.7656ZM87.1897 48.9062L86.327 49.412L86.3374 49.4297L86.3485 49.447L87.1897 48.9062ZM92.7209 48.7188L93.4505 49.4027L93.4557 49.3971L93.4609 49.3914L92.7209 48.7188ZM97.0334 38.6406L96.0601 38.4108L96.0573 38.4237L97.0334 38.6406ZM98.3459 31.6094L97.3572 31.4592L97.3557 31.4697L98.3459 31.6094ZM99.7053 17.125L98.7068 17.0687L98.7062 17.0822L99.7053 17.125ZM99.9397 11.1719L98.9403 11.1362L98.94 11.1451L98.9399 11.154L99.9397 11.1719ZM99.8459 3.4375L99.8767 2.43797L98.7375 2.40292L98.8509 3.537L99.8459 3.4375ZM116.627 3.625V4.625H116.637L116.647 4.62481L116.627 3.625ZM121.408 3.4375L120.417 3.31069C119.009 14.3224 117.804 25.2873 116.803 36.2056L117.799 36.2969L118.795 36.3882C119.794 25.4939 120.996 14.5526 122.4 3.56431L121.408 3.4375ZM117.799 36.2969L116.803 36.2053C115.803 47.0836 114.85 58.0399 113.943 69.0744L114.94 69.1562L115.936 69.2381C116.842 58.2101 117.795 47.2602 118.795 36.3884L117.799 36.2969ZM114.94 69.1562L114.867 68.1589L95.648 69.5652L95.7209 70.5625L95.7939 71.5598L115.013 70.1536L114.94 69.1562ZM95.7209 70.5625L96.7142 70.6786L97.5579 63.4598L96.5647 63.3438L95.5715 63.2277L94.7277 70.4464L95.7209 70.5625ZM96.5647 63.3438L95.8101 62.6876C95.2523 63.3291 94.5936 63.891 93.8288 64.3725L94.3616 65.2188L94.8944 66.065C95.8171 65.484 96.6271 64.7959 97.3193 63.9999L96.5647 63.3438ZM94.3616 65.2188L93.8143 64.3818C93.0672 64.8703 92.2605 65.274 91.3923 65.5924L91.7366 66.5312L92.0808 67.4701C93.0876 67.101 94.0309 66.6297 94.9088 66.0557L94.3616 65.2188ZM91.7366 66.5312L91.4203 65.5826C90.5369 65.8771 89.6223 66.0985 88.6759 66.2464L88.8303 67.2344L88.9847 68.2224C90.0383 68.0578 91.0613 67.8104 92.0528 67.4799L91.7366 66.5312ZM88.8303 67.2344L88.7063 66.2421C87.7531 66.3612 86.8533 66.4048 86.0054 66.3756L85.9709 67.375L85.9365 68.3744C86.9011 68.4077 87.9075 68.3575 88.9544 68.2267L88.8303 67.2344ZM85.9709 67.375L85.9857 66.3751C83.9817 66.3456 82.1079 65.9633 80.3556 65.2332L79.9709 66.1562L79.5863 67.0793C81.584 67.9117 83.7102 68.3419 85.9562 68.3749L85.9709 67.375ZM79.9709 66.1562L80.3686 65.2387C78.5822 64.4646 76.9462 63.4532 75.4579 62.203L74.8147 62.9688L74.1715 63.7345C75.8082 65.1093 77.6097 66.2229 79.5733 67.0738L79.9709 66.1562ZM74.8147 62.9688L75.4667 62.2106C73.9676 60.9213 72.6151 59.4345 71.4097 57.7469L70.5959 58.3281L69.7822 58.9094C71.0768 60.7218 72.5368 62.3287 74.1627 63.7269L74.8147 62.9688ZM70.5959 58.3281L71.4145 57.7537C70.1996 56.0225 69.1684 54.2175 68.3198 52.3384L67.4084 52.75L66.4971 53.1616C67.3984 55.1575 68.4923 57.0713 69.7774 58.9026L70.5959 58.3281ZM67.4084 52.75L68.3276 52.3561C67.5066 50.4404 66.8691 48.4969 66.4141 46.5251L65.4397 46.75L64.4653 46.9749C64.9478 49.0656 65.6228 51.1221 66.4893 53.1439L67.4084 52.75ZM65.4397 46.75L66.4173 46.5394C65.9934 44.5712 65.7834 42.6732 65.7834 40.8438H64.7834H63.7834C63.7834 42.8268 64.011 44.8663 64.4621 46.9606L65.4397 46.75ZM64.7834 40.8438H65.7834C65.7834 38.0423 65.8301 35.1465 65.9236 32.1562L64.9241 32.125L63.9246 32.0938C63.8305 35.1035 63.7834 38.0202 63.7834 40.8438H64.7834ZM64.9241 32.125L65.9232 32.1662C66.0475 29.1521 66.2495 26.1379 66.5292 23.1236L65.5334 23.0312L64.5377 22.9389C64.2549 25.9871 64.0506 29.0354 63.9249 32.0838L64.9241 32.125ZM65.5334 23.0312L66.5292 23.1236C66.8088 20.11 67.166 17.1278 67.6009 14.177L66.6116 14.0312L65.6223 13.8855C65.1821 16.8722 64.8206 19.89 64.5377 22.9389L65.5334 23.0312ZM66.6116 14.0312L67.5993 14.1872C68.0637 11.2463 68.6359 8.43246 69.3154 5.74516L68.3459 5.5L67.3765 5.25484C66.681 8.00504 66.097 10.8787 65.6238 13.8753L66.6116 14.0312ZM68.3459 5.5L68.2968 6.49879C72.1122 6.68643 75.9431 6.85844 79.7897 7.0148L79.8303 6.01562L79.8709 5.01645C76.03 4.86031 72.2047 4.68857 68.3951 4.50121L68.3459 5.5ZM79.8303 6.01562L79.7897 7.0148C83.6523 7.17181 87.4994 7.21893 91.3311 7.15612L91.3147 6.15625L91.2983 5.15638C87.505 5.21857 83.6959 5.17194 79.8709 5.01645L79.8303 6.01562ZM91.3147 6.15625L90.3479 5.90066C89.6289 8.62033 88.9099 11.3556 88.1909 14.1065L89.1584 14.3594L90.1259 14.6122C90.8445 11.8631 91.563 9.12967 92.2815 6.41184L91.3147 6.15625ZM89.1584 14.3594L88.189 14.1142C87.4975 16.8487 86.8689 19.6144 86.3033 22.4111L87.2834 22.6094L88.2636 22.8076C88.823 20.0419 89.4444 17.3075 90.1279 14.6045L89.1584 14.3594ZM87.2834 22.6094L86.3037 22.409C85.736 25.1847 85.2786 27.9762 84.9316 30.7836L85.9241 30.9062L86.9165 31.0289C87.257 28.2738 87.7059 25.5341 88.2632 22.8098L87.2834 22.6094ZM85.9241 30.9062L84.9316 30.7836C84.5828 33.6061 84.4084 36.4596 84.4084 39.3438H85.4084H86.4084C86.4084 36.5404 86.5779 33.7689 86.9165 31.0289L85.9241 30.9062ZM85.4084 39.3438H84.4084C84.4084 40.0258 84.4407 40.9835 84.5035 42.2075L85.5022 42.1562L86.5009 42.105C86.4387 40.8915 86.4084 39.9742 86.4084 39.3438H85.4084ZM85.5022 42.1562L84.5035 42.2075C84.5687 43.478 84.7316 44.7329 84.9924 45.9716L85.9709 45.7656L86.9495 45.5596C86.7103 44.4234 86.5607 43.272 86.5009 42.105L85.5022 42.1562ZM85.9709 45.7656L84.9979 45.9961C85.2984 47.2651 85.7381 48.4074 86.327 49.412L87.1897 48.9062L88.0524 48.4005C87.5788 47.5926 87.206 46.6412 86.944 45.5352L85.9709 45.7656ZM87.1897 48.9062L86.3485 49.447C87.0861 50.5943 88.177 51.2188 89.5334 51.2188V50.2188V49.2188C88.8899 49.2188 88.4183 48.9682 88.0309 48.3655L87.1897 48.9062ZM89.5334 50.2188V51.2188C91.0408 51.2188 92.3559 50.5703 93.4505 49.4027L92.7209 48.7188L91.9914 48.0348C91.211 48.8672 90.4011 49.2188 89.5334 49.2188V50.2188ZM92.7209 48.7188L93.4609 49.3914C94.4962 48.2526 95.379 46.7704 96.1279 44.9796L95.2053 44.5938L94.2827 44.2079C93.5941 45.8546 92.8207 47.1224 91.981 48.0461L92.7209 48.7188ZM95.2053 44.5938L96.1279 44.9796C96.8741 43.1952 97.4997 41.1523 98.0096 38.8576L97.0334 38.6406L96.0573 38.4237C95.5672 40.6289 94.9741 42.5548 94.2827 44.2079L95.2053 44.5938ZM97.0334 38.6406L98.0067 38.8704C98.5454 36.5888 98.9884 34.2149 99.3361 31.749L98.3459 31.6094L97.3557 31.4697C97.016 33.8789 96.584 36.1924 96.0602 38.4108L97.0334 38.6406ZM98.3459 31.6094L99.3346 31.7596C99.7128 29.2698 100.012 26.7644 100.233 24.2434L99.2366 24.1562L98.2404 24.0691C98.0235 26.5481 97.7291 29.0115 97.3573 31.4592L98.3459 31.6094ZM99.2366 24.1562L100.233 24.2434C100.453 21.7307 100.61 19.3721 100.704 17.1678L99.7053 17.125L98.7062 17.0822C98.6132 19.2529 98.458 21.5818 98.2404 24.0691L99.2366 24.1562ZM99.7053 17.125L100.704 17.1812C100.829 14.9529 100.908 12.9554 100.94 11.1897L99.9397 11.1719L98.9399 11.154C98.9089 12.8884 98.8314 14.8596 98.7069 17.0688L99.7053 17.125ZM99.9397 11.1719L100.939 11.2076C101.002 9.4535 101.033 8.08026 101.033 7.09375H100.033H99.0334C99.0334 8.04474 99.0027 9.39025 98.9403 11.1362L99.9397 11.1719ZM100.033 7.09375H101.033C101.033 6.45211 101.017 5.82518 100.985 5.21307L99.9866 5.26562L98.988 5.31818C99.0182 5.89357 99.0334 6.48539 99.0334 7.09375H100.033ZM99.9866 5.26562L100.985 5.21307C100.953 4.60279 100.905 3.97775 100.841 3.338L99.8459 3.4375L98.8509 3.537C98.9119 4.14725 98.9576 4.74096 98.988 5.31818L99.9866 5.26562ZM99.8459 3.4375L99.8152 4.43703C101.851 4.49968 103.872 4.54667 105.877 4.578L105.893 3.57812L105.908 2.57825C103.914 2.54708 101.903 2.50032 99.8767 2.43797L99.8459 3.4375ZM105.893 3.57812L105.877 4.578C107.882 4.60934 109.903 4.625 111.94 4.625V3.625V2.625C109.914 2.625 107.903 2.60941 105.908 2.57825L105.893 3.57812ZM111.94 3.625V4.625C111.943 4.625 111.946 4.625 111.949 4.625C111.952 4.625 111.955 4.625 111.958 4.625C111.961 4.625 111.964 4.625 111.967 4.625C111.97 4.625 111.973 4.625 111.976 4.625C111.979 4.625 111.982 4.625 111.985 4.625C111.989 4.625 111.992 4.625 111.995 4.625C111.998 4.625 112.001 4.625 112.004 4.625C112.007 4.625 112.01 4.625 112.013 4.625C112.016 4.625 112.019 4.625 112.022 4.625C112.025 4.625 112.028 4.625 112.031 4.625C112.034 4.625 112.037 4.625 112.04 4.625C112.043 4.625 112.047 4.625 112.05 4.625C112.053 4.625 112.056 4.625 112.059 4.625C112.062 4.625 112.065 4.625 112.068 4.625C112.071 4.625 112.074 4.625 112.077 4.625C112.08 4.625 112.083 4.625 112.086 4.625C112.089 4.625 112.092 4.625 112.095 4.625C112.098 4.625 112.101 4.625 112.104 4.625C112.108 4.625 112.111 4.625 112.114 4.625C112.117 4.625 112.12 4.625 112.123 4.625C112.126 4.625 112.129 4.625 112.132 4.625C112.135 4.625 112.138 4.625 112.141 4.625C112.144 4.625 112.147 4.625 112.15 4.625C112.153 4.625 112.156 4.625 112.159 4.625C112.162 4.625 112.166 4.625 112.169 4.625C112.172 4.625 112.175 4.625 112.178 4.625C112.181 4.625 112.184 4.625 112.187 4.625C112.19 4.625 112.193 4.625 112.196 4.625C112.199 4.625 112.202 4.625 112.205 4.625C112.208 4.625 112.211 4.625 112.214 4.625C112.217 4.625 112.22 4.625 112.224 4.625C112.227 4.625 112.23 4.625 112.233 4.625C112.236 4.625 112.239 4.625 112.242 4.625C112.245 4.625 112.248 4.625 112.251 4.625C112.254 4.625 112.257 4.625 112.26 4.625C112.263 4.625 112.266 4.625 112.269 4.625C112.272 4.625 112.275 4.625 112.278 4.625C112.281 4.625 112.285 4.625 112.288 4.625C112.291 4.625 112.294 4.625 112.297 4.625C112.3 4.625 112.303 4.625 112.306 4.625C112.309 4.625 112.312 4.625 112.315 4.625C112.318 4.625 112.321 4.625 112.324 4.625C112.327 4.625 112.33 4.625 112.333 4.625C112.336 4.625 112.339 4.625 112.343 4.625C112.346 4.625 112.349 4.625 112.352 4.625C112.355 4.625 112.358 4.625 112.361 4.625C112.364 4.625 112.367 4.625 112.37 4.625C112.373 4.625 112.376 4.625 112.379 4.625C112.382 4.625 112.385 4.625 112.388 4.625C112.391 4.625 112.394 4.625 112.397 4.625C112.401 4.625 112.404 4.625 112.407 4.625C112.41 4.625 112.413 4.625 112.416 4.625C112.419 4.625 112.422 4.625 112.425 4.625C112.428 4.625 112.431 4.625 112.434 4.625C112.437 4.625 112.44 4.625 112.443 4.625C112.446 4.625 112.449 4.625 112.452 4.625C112.455 4.625 112.458 4.625 112.462 4.625C112.465 4.625 112.468 4.625 112.471 4.625C112.474 4.625 112.477 4.625 112.48 4.625C112.483 4.625 112.486 4.625 112.489 4.625C112.492 4.625 112.495 4.625 112.498 4.625C112.501 4.625 112.504 4.625 112.507 4.625C112.51 4.625 112.513 4.625 112.516 4.625C112.52 4.625 112.523 4.625 112.526 4.625C112.529 4.625 112.532 4.625 112.535 4.625C112.538 4.625 112.541 4.625 112.544 4.625C112.547 4.625 112.55 4.625 112.553 4.625C112.556 4.625 112.559 4.625 112.562 4.625C112.565 4.625 112.568 4.625 112.571 4.625C112.574 4.625 112.578 4.625 112.581 4.625C112.584 4.625 112.587 4.625 112.59 4.625C112.593 4.625 112.596 4.625 112.599 4.625C112.602 4.625 112.605 4.625 112.608 4.625C112.611 4.625 112.614 4.625 112.617 4.625C112.62 4.625 112.623 4.625 112.626 4.625C112.629 4.625 112.632 4.625 112.635 4.625C112.639 4.625 112.642 4.625 112.645 4.625C112.648 4.625 112.651 4.625 112.654 4.625C112.657 4.625 112.66 4.625 112.663 4.625C112.666 4.625 112.669 4.625 112.672 4.625C112.675 4.625 112.678 4.625 112.681 4.625C112.684 4.625 112.687 4.625 112.69 4.625C112.693 4.625 112.697 4.625 112.7 4.625C112.703 4.625 112.706 4.625 112.709 4.625C112.712 4.625 112.715 4.625 112.718 4.625C112.721 4.625 112.724 4.625 112.727 4.625C112.73 4.625 112.733 4.625 112.736 4.625C112.739 4.625 112.742 4.625 112.745 4.625C112.748 4.625 112.751 4.625 112.755 4.625C112.758 4.625 112.761 4.625 112.764 4.625C112.767 4.625 112.77 4.625 112.773 4.625C112.776 4.625 112.779 4.625 112.782 4.625C112.785 4.625 112.788 4.625 112.791 4.625C112.794 4.625 112.797 4.625 112.8 4.625C112.803 4.625 112.806 4.625 112.809 4.625C112.812 4.625 112.816 4.625 112.819 4.625C112.822 4.625 112.825 4.625 112.828 4.625C112.831 4.625 112.834 4.625 112.837 4.625C112.84 4.625 112.843 4.625 112.846 4.625C112.849 4.625 112.852 4.625 112.855 4.625C112.858 4.625 112.861 4.625 112.864 4.625C112.867 4.625 112.87 4.625 112.874 4.625C112.877 4.625 112.88 4.625 112.883 4.625C112.886 4.625 112.889 4.625 112.892 4.625C112.895 4.625 112.898 4.625 112.901 4.625C112.904 4.625 112.907 4.625 112.91 4.625C112.913 4.625 112.916 4.625 112.919 4.625C112.922 4.625 112.925 4.625 112.928 4.625C112.932 4.625 112.935 4.625 112.938 4.625C112.941 4.625 112.944 4.625 112.947 4.625C112.95 4.625 112.953 4.625 112.956 4.625C112.959 4.625 112.962 4.625 112.965 4.625C112.968 4.625 112.971 4.625 112.974 4.625C112.977 4.625 112.98 4.625 112.983 4.625C112.986 4.625 112.99 4.625 112.993 4.625C112.996 4.625 112.999 4.625 113.002 4.625C113.005 4.625 113.008 4.625 113.011 4.625C113.014 4.625 113.017 4.625 113.02 4.625C113.023 4.625 113.026 4.625 113.029 4.625C113.032 4.625 113.035 4.625 113.038 4.625C113.041 4.625 113.044 4.625 113.047 4.625C113.051 4.625 113.054 4.625 113.057 4.625C113.06 4.625 113.063 4.625 113.066 4.625C113.069 4.625 113.072 4.625 113.075 4.625C113.078 4.625 113.081 4.625 113.084 4.625C113.087 4.625 113.09 4.625 113.093 4.625C113.096 4.625 113.099 4.625 113.102 4.625C113.105 4.625 113.109 4.625 113.112 4.625C113.115 4.625 113.118 4.625 113.121 4.625C113.124 4.625 113.127 4.625 113.13 4.625C113.133 4.625 113.136 4.625 113.139 4.625C113.142 4.625 113.145 4.625 113.148 4.625C113.151 4.625 113.154 4.625 113.157 4.625C113.16 4.625 113.163 4.625 113.167 4.625C113.17 4.625 113.173 4.625 113.176 4.625C113.179 4.625 113.182 4.625 113.185 4.625C113.188 4.625 113.191 4.625 113.194 4.625C113.197 4.625 113.2 4.625 113.203 4.625C113.206 4.625 113.209 4.625 113.212 4.625C113.215 4.625 113.218 4.625 113.221 4.625C113.224 4.625 113.228 4.625 113.231 4.625C113.234 4.625 113.237 4.625 113.24 4.625C113.243 4.625 113.246 4.625 113.249 4.625C113.252 4.625 113.255 4.625 113.258 4.625C113.261 4.625 113.264 4.625 113.267 4.625C113.27 4.625 113.273 4.625 113.276 4.625C113.279 4.625 113.282 4.625 113.286 4.625C113.289 4.625 113.292 4.625 113.295 4.625C113.298 4.625 113.301 4.625 113.304 4.625C113.307 4.625 113.31 4.625 113.313 4.625C113.316 4.625 113.319 4.625 113.322 4.625C113.325 4.625 113.328 4.625 113.331 4.625C113.334 4.625 113.337 4.625 113.34 4.625C113.344 4.625 113.347 4.625 113.35 4.625C113.353 4.625 113.356 4.625 113.359 4.625C113.362 4.625 113.365 4.625 113.368 4.625C113.371 4.625 113.374 4.625 113.377 4.625C113.38 4.625 113.383 4.625 113.386 4.625C113.389 4.625 113.392 4.625 113.395 4.625C113.398 4.625 113.401 4.625 113.405 4.625C113.408 4.625 113.411 4.625 113.414 4.625C113.417 4.625 113.42 4.625 113.423 4.625C113.426 4.625 113.429 4.625 113.432 4.625C113.435 4.625 113.438 4.625 113.441 4.625C113.444 4.625 113.447 4.625 113.45 4.625C113.453 4.625 113.456 4.625 113.459 4.625C113.463 4.625 113.466 4.625 113.469 4.625C113.472 4.625 113.475 4.625 113.478 4.625C113.481 4.625 113.484 4.625 113.487 4.625C113.49 4.625 113.493 4.625 113.496 4.625C113.499 4.625 113.502 4.625 113.505 4.625C113.508 4.625 113.511 4.625 113.514 4.625C113.517 4.625 113.521 4.625 113.524 4.625C113.527 4.625 113.53 4.625 113.533 4.625C113.536 4.625 113.539 4.625 113.542 4.625C113.545 4.625 113.548 4.625 113.551 4.625C113.554 4.625 113.557 4.625 113.56 4.625C113.563 4.625 113.566 4.625 113.569 4.625C113.572 4.625 113.575 4.625 113.578 4.625C113.582 4.625 113.585 4.625 113.588 4.625C113.591 4.625 113.594 4.625 113.597 4.625C113.6 4.625 113.603 4.625 113.606 4.625C113.609 4.625 113.612 4.625 113.615 4.625C113.618 4.625 113.621 4.625 113.624 4.625C113.627 4.625 113.63 4.625 113.633 4.625C113.636 4.625 113.64 4.625 113.643 4.625C113.646 4.625 113.649 4.625 113.652 4.625C113.655 4.625 113.658 4.625 113.661 4.625C113.664 4.625 113.667 4.625 113.67 4.625C113.673 4.625 113.676 4.625 113.679 4.625C113.682 4.625 113.685 4.625 113.688 4.625C113.691 4.625 113.694 4.625 113.698 4.625C113.701 4.625 113.704 4.625 113.707 4.625C113.71 4.625 113.713 4.625 113.716 4.625C113.719 4.625 113.722 4.625 113.725 4.625C113.728 4.625 113.731 4.625 113.734 4.625C113.737 4.625 113.74 4.625 113.743 4.625C113.746 4.625 113.749 4.625 113.752 4.625C113.755 4.625 113.759 4.625 113.762 4.625C113.765 4.625 113.768 4.625 113.771 4.625C113.774 4.625 113.777 4.625 113.78 4.625C113.783 4.625 113.786 4.625 113.789 4.625C113.792 4.625 113.795 4.625 113.798 4.625C113.801 4.625 113.804 4.625 113.807 4.625C113.81 4.625 113.813 4.625 113.817 4.625C113.82 4.625 113.823 4.625 113.826 4.625C113.829 4.625 113.832 4.625 113.835 4.625C113.838 4.625 113.841 4.625 113.844 4.625C113.847 4.625 113.85 4.625 113.853 4.625C113.856 4.625 113.859 4.625 113.862 4.625C113.865 4.625 113.868 4.625 113.871 4.625C113.875 4.625 113.878 4.625 113.881 4.625C113.884 4.625 113.887 4.625 113.89 4.625C113.893 4.625 113.896 4.625 113.899 4.625C113.902 4.625 113.905 4.625 113.908 4.625C113.911 4.625 113.914 4.625 113.917 4.625C113.92 4.625 113.923 4.625 113.926 4.625C113.929 4.625 113.932 4.625 113.936 4.625C113.939 4.625 113.942 4.625 113.945 4.625C113.948 4.625 113.951 4.625 113.954 4.625C113.957 4.625 113.96 4.625 113.963 4.625C113.966 4.625 113.969 4.625 113.972 4.625C113.975 4.625 113.978 4.625 113.981 4.625C113.984 4.625 113.987 4.625 113.99 4.625C113.994 4.625 113.997 4.625 114 4.625C114.003 4.625 114.006 4.625 114.009 4.625C114.012 4.625 114.015 4.625 114.018 4.625C114.021 4.625 114.024 4.625 114.027 4.625C114.03 4.625 114.033 4.625 114.036 4.625C114.039 4.625 114.042 4.625 114.045 4.625C114.048 4.625 114.052 4.625 114.055 4.625C114.058 4.625 114.061 4.625 114.064 4.625C114.067 4.625 114.07 4.625 114.073 4.625C114.076 4.625 114.079 4.625 114.082 4.625C114.085 4.625 114.088 4.625 114.091 4.625C114.094 4.625 114.097 4.625 114.1 4.625C114.103 4.625 114.106 4.625 114.109 4.625C114.113 4.625 114.116 4.625 114.119 4.625C114.122 4.625 114.125 4.625 114.128 4.625C114.131 4.625 114.134 4.625 114.137 4.625C114.14 4.625 114.143 4.625 114.146 4.625C114.149 4.625 114.152 4.625 114.155 4.625C114.158 4.625 114.161 4.625 114.164 4.625C114.167 4.625 114.171 4.625 114.174 4.625C114.177 4.625 114.18 4.625 114.183 4.625C114.186 4.625 114.189 4.625 114.192 4.625C114.195 4.625 114.198 4.625 114.201 4.625C114.204 4.625 114.207 4.625 114.21 4.625C114.213 4.625 114.216 4.625 114.219 4.625C114.222 4.625 114.225 4.625 114.229 4.625C114.232 4.625 114.235 4.625 114.238 4.625C114.241 4.625 114.244 4.625 114.247 4.625C114.25 4.625 114.253 4.625 114.256 4.625C114.259 4.625 114.262 4.625 114.265 4.625C114.268 4.625 114.271 4.625 114.274 4.625C114.277 4.625 114.28 4.625 114.283 4.625C114.286 4.625 114.29 4.625 114.293 4.625C114.296 4.625 114.299 4.625 114.302 4.625C114.305 4.625 114.308 4.625 114.311 4.625C114.314 4.625 114.317 4.625 114.32 4.625C114.323 4.625 114.326 4.625 114.329 4.625C114.332 4.625 114.335 4.625 114.338 4.625C114.341 4.625 114.344 4.625 114.348 4.625C114.351 4.625 114.354 4.625 114.357 4.625C114.36 4.625 114.363 4.625 114.366 4.625C114.369 4.625 114.372 4.625 114.375 4.625C114.378 4.625 114.381 4.625 114.384 4.625C114.387 4.625 114.39 4.625 114.393 4.625C114.396 4.625 114.399 4.625 114.402 4.625C114.406 4.625 114.409 4.625 114.412 4.625C114.415 4.625 114.418 4.625 114.421 4.625C114.424 4.625 114.427 4.625 114.43 4.625C114.433 4.625 114.436 4.625 114.439 4.625C114.442 4.625 114.445 4.625 114.448 4.625C114.451 4.625 114.454 4.625 114.457 4.625C114.46 4.625 114.464 4.625 114.467 4.625C114.47 4.625 114.473 4.625 114.476 4.625C114.479 4.625 114.482 4.625 114.485 4.625C114.488 4.625 114.491 4.625 114.494 4.625C114.497 4.625 114.5 4.625 114.503 4.625C114.506 4.625 114.509 4.625 114.512 4.625C114.515 4.625 114.518 4.625 114.521 4.625C114.525 4.625 114.528 4.625 114.531 4.625C114.534 4.625 114.537 4.625 114.54 4.625C114.543 4.625 114.546 4.625 114.549 4.625C114.552 4.625 114.555 4.625 114.558 4.625C114.561 4.625 114.564 4.625 114.567 4.625C114.57 4.625 114.573 4.625 114.576 4.625C114.579 4.625 114.583 4.625 114.586 4.625C114.589 4.625 114.592 4.625 114.595 4.625C114.598 4.625 114.601 4.625 114.604 4.625C114.607 4.625 114.61 4.625 114.613 4.625C114.616 4.625 114.619 4.625 114.622 4.625C114.625 4.625 114.628 4.625 114.631 4.625C114.634 4.625 114.637 4.625 114.641 4.625C114.644 4.625 114.647 4.625 114.65 4.625C114.653 4.625 114.656 4.625 114.659 4.625C114.662 4.625 114.665 4.625 114.668 4.625C114.671 4.625 114.674 4.625 114.677 4.625C114.68 4.625 114.683 4.625 114.686 4.625C114.689 4.625 114.692 4.625 114.695 4.625C114.698 4.625 114.702 4.625 114.705 4.625C114.708 4.625 114.711 4.625 114.714 4.625C114.717 4.625 114.72 4.625 114.723 4.625C114.726 4.625 114.729 4.625 114.732 4.625C114.735 4.625 114.738 4.625 114.741 4.625C114.744 4.625 114.747 4.625 114.75 4.625C114.753 4.625 114.756 4.625 114.76 4.625C114.763 4.625 114.766 4.625 114.769 4.625C114.772 4.625 114.775 4.625 114.778 4.625C114.781 4.625 114.784 4.625 114.787 4.625C114.79 4.625 114.793 4.625 114.796 4.625C114.799 4.625 114.802 4.625 114.805 4.625C114.808 4.625 114.811 4.625 114.814 4.625C114.818 4.625 114.821 4.625 114.824 4.625C114.827 4.625 114.83 4.625 114.833 4.625C114.836 4.625 114.839 4.625 114.842 4.625C114.845 4.625 114.848 4.625 114.851 4.625C114.854 4.625 114.857 4.625 114.86 4.625C114.863 4.625 114.866 4.625 114.869 4.625C114.872 4.625 114.875 4.625 114.879 4.625C114.882 4.625 114.885 4.625 114.888 4.625C114.891 4.625 114.894 4.625 114.897 4.625C114.9 4.625 114.903 4.625 114.906 4.625C114.909 4.625 114.912 4.625 114.915 4.625C114.918 4.625 114.921 4.625 114.924 4.625C114.927 4.625 114.93 4.625 114.933 4.625C114.937 4.625 114.94 4.625 114.943 4.625C114.946 4.625 114.949 4.625 114.952 4.625C114.955 4.625 114.958 4.625 114.961 4.625C114.964 4.625 114.967 4.625 114.97 4.625C114.973 4.625 114.976 4.625 114.979 4.625C114.982 4.625 114.985 4.625 114.988 4.625C114.991 4.625 114.995 4.625 114.998 4.625C115.001 4.625 115.004 4.625 115.007 4.625C115.01 4.625 115.013 4.625 115.016 4.625C115.019 4.625 115.022 4.625 115.025 4.625C115.028 4.625 115.031 4.625 115.034 4.625C115.037 4.625 115.04 4.625 115.043 4.625C115.046 4.625 115.049 4.625 115.052 4.625C115.056 4.625 115.059 4.625 115.062 4.625C115.065 4.625 115.068 4.625 115.071 4.625C115.074 4.625 115.077 4.625 115.08 4.625C115.083 4.625 115.086 4.625 115.089 4.625C115.092 4.625 115.095 4.625 115.098 4.625C115.101 4.625 115.104 4.625 115.107 4.625C115.11 4.625 115.114 4.625 115.117 4.625C115.12 4.625 115.123 4.625 115.126 4.625C115.129 4.625 115.132 4.625 115.135 4.625C115.138 4.625 115.141 4.625 115.144 4.625C115.147 4.625 115.15 4.625 115.153 4.625C115.156 4.625 115.159 4.625 115.162 4.625C115.165 4.625 115.168 4.625 115.172 4.625C115.175 4.625 115.178 4.625 115.181 4.625C115.184 4.625 115.187 4.625 115.19 4.625C115.193 4.625 115.196 4.625 115.199 4.625C115.202 4.625 115.205 4.625 115.208 4.625C115.211 4.625 115.214 4.625 115.217 4.625C115.22 4.625 115.223 4.625 115.226 4.625C115.229 4.625 115.233 4.625 115.236 4.625C115.239 4.625 115.242 4.625 115.245 4.625C115.248 4.625 115.251 4.625 115.254 4.625C115.257 4.625 115.26 4.625 115.263 4.625C115.266 4.625 115.269 4.625 115.272 4.625C115.275 4.625 115.278 4.625 115.281 4.625C115.284 4.625 115.287 4.625 115.291 4.625C115.294 4.625 115.297 4.625 115.3 4.625C115.303 4.625 115.306 4.625 115.309 4.625C115.312 4.625 115.315 4.625 115.318 4.625C115.321 4.625 115.324 4.625 115.327 4.625C115.33 4.625 115.333 4.625 115.336 4.625C115.339 4.625 115.342 4.625 115.345 4.625C115.349 4.625 115.352 4.625 115.355 4.625C115.358 4.625 115.361 4.625 115.364 4.625C115.367 4.625 115.37 4.625 115.373 4.625C115.376 4.625 115.379 4.625 115.382 4.625C115.385 4.625 115.388 4.625 115.391 4.625C115.394 4.625 115.397 4.625 115.4 4.625C115.403 4.625 115.406 4.625 115.41 4.625C115.413 4.625 115.416 4.625 115.419 4.625C115.422 4.625 115.425 4.625 115.428 4.625C115.431 4.625 115.434 4.625 115.437 4.625C115.44 4.625 115.443 4.625 115.446 4.625C115.449 4.625 115.452 4.625 115.455 4.625C115.458 4.625 115.461 4.625 115.464 4.625C115.468 4.625 115.471 4.625 115.474 4.625C115.477 4.625 115.48 4.625 115.483 4.625C115.486 4.625 115.489 4.625 115.492 4.625C115.495 4.625 115.498 4.625 115.501 4.625C115.504 4.625 115.507 4.625 115.51 4.625C115.513 4.625 115.516 4.625 115.519 4.625C115.522 4.625 115.526 4.625 115.529 4.625C115.532 4.625 115.535 4.625 115.538 4.625C115.541 4.625 115.544 4.625 115.547 4.625C115.55 4.625 115.553 4.625 115.556 4.625C115.559 4.625 115.562 4.625 115.565 4.625C115.568 4.625 115.571 4.625 115.574 4.625C115.577 4.625 115.58 4.625 115.583 4.625C115.587 4.625 115.59 4.625 115.593 4.625C115.596 4.625 115.599 4.625 115.602 4.625C115.605 4.625 115.608 4.625 115.611 4.625C115.614 4.625 115.617 4.625 115.62 4.625C115.623 4.625 115.626 4.625 115.629 4.625C115.632 4.625 115.635 4.625 115.638 4.625C115.641 4.625 115.645 4.625 115.648 4.625C115.651 4.625 115.654 4.625 115.657 4.625C115.66 4.625 115.663 4.625 115.666 4.625C115.669 4.625 115.672 4.625 115.675 4.625C115.678 4.625 115.681 4.625 115.684 4.625C115.687 4.625 115.69 4.625 115.693 4.625C115.696 4.625 115.699 4.625 115.703 4.625C115.706 4.625 115.709 4.625 115.712 4.625C115.715 4.625 115.718 4.625 115.721 4.625C115.724 4.625 115.727 4.625 115.73 4.625C115.733 4.625 115.736 4.625 115.739 4.625C115.742 4.625 115.745 4.625 115.748 4.625C115.751 4.625 115.754 4.625 115.757 4.625C115.76 4.625 115.764 4.625 115.767 4.625C115.77 4.625 115.773 4.625 115.776 4.625C115.779 4.625 115.782 4.625 115.785 4.625C115.788 4.625 115.791 4.625 115.794 4.625C115.797 4.625 115.8 4.625 115.803 4.625C115.806 4.625 115.809 4.625 115.812 4.625C115.815 4.625 115.818 4.625 115.822 4.625C115.825 4.625 115.828 4.625 115.831 4.625C115.834 4.625 115.837 4.625 115.84 4.625C115.843 4.625 115.846 4.625 115.849 4.625C115.852 4.625 115.855 4.625 115.858 4.625C115.861 4.625 115.864 4.625 115.867 4.625C115.87 4.625 115.873 4.625 115.876 4.625C115.88 4.625 115.883 4.625 115.886 4.625C115.889 4.625 115.892 4.625 115.895 4.625C115.898 4.625 115.901 4.625 115.904 4.625C115.907 4.625 115.91 4.625 115.913 4.625C115.916 4.625 115.919 4.625 115.922 4.625C115.925 4.625 115.928 4.625 115.931 4.625C115.934 4.625 115.938 4.625 115.941 4.625C115.944 4.625 115.947 4.625 115.95 4.625C115.953 4.625 115.956 4.625 115.959 4.625C115.962 4.625 115.965 4.625 115.968 4.625C115.971 4.625 115.974 4.625 115.977 4.625C115.98 4.625 115.983 4.625 115.986 4.625C115.989 4.625 115.992 4.625 115.995 4.625C115.999 4.625 116.002 4.625 116.005 4.625C116.008 4.625 116.011 4.625 116.014 4.625C116.017 4.625 116.02 4.625 116.023 4.625C116.026 4.625 116.029 4.625 116.032 4.625C116.035 4.625 116.038 4.625 116.041 4.625C116.044 4.625 116.047 4.625 116.05 4.625C116.053 4.625 116.057 4.625 116.06 4.625C116.063 4.625 116.066 4.625 116.069 4.625C116.072 4.625 116.075 4.625 116.078 4.625C116.081 4.625 116.084 4.625 116.087 4.625C116.09 4.625 116.093 4.625 116.096 4.625C116.099 4.625 116.102 4.625 116.105 4.625C116.108 4.625 116.111 4.625 116.115 4.625C116.118 4.625 116.121 4.625 116.124 4.625C116.127 4.625 116.13 4.625 116.133 4.625C116.136 4.625 116.139 4.625 116.142 4.625C116.145 4.625 116.148 4.625 116.151 4.625C116.154 4.625 116.157 4.625 116.16 4.625C116.163 4.625 116.166 4.625 116.169 4.625C116.172 4.625 116.176 4.625 116.179 4.625C116.182 4.625 116.185 4.625 116.188 4.625C116.191 4.625 116.194 4.625 116.197 4.625C116.2 4.625 116.203 4.625 116.206 4.625C116.209 4.625 116.212 4.625 116.215 4.625C116.218 4.625 116.221 4.625 116.224 4.625C116.227 4.625 116.23 4.625 116.234 4.625C116.237 4.625 116.24 4.625 116.243 4.625C116.246 4.625 116.249 4.625 116.252 4.625C116.255 4.625 116.258 4.625 116.261 4.625C116.264 4.625 116.267 4.625 116.27 4.625C116.273 4.625 116.276 4.625 116.279 4.625C116.282 4.625 116.285 4.625 116.288 4.625C116.292 4.625 116.295 4.625 116.298 4.625C116.301 4.625 116.304 4.625 116.307 4.625C116.31 4.625 116.313 4.625 116.316 4.625C116.319 4.625 116.322 4.625 116.325 4.625C116.328 4.625 116.331 4.625 116.334 4.625C116.337 4.625 116.34 4.625 116.343 4.625C116.346 4.625 116.349 4.625 116.353 4.625C116.356 4.625 116.359 4.625 116.362 4.625C116.365 4.625 116.368 4.625 116.371 4.625C116.374 4.625 116.377 4.625 116.38 4.625C116.383 4.625 116.386 4.625 116.389 4.625C116.392 4.625 116.395 4.625 116.398 4.625C116.401 4.625 116.404 4.625 116.407 4.625C116.411 4.625 116.414 4.625 116.417 4.625C116.42 4.625 116.423 4.625 116.426 4.625C116.429 4.625 116.432 4.625 116.435 4.625C116.438 4.625 116.441 4.625 116.444 4.625C116.447 4.625 116.45 4.625 116.453 4.625C116.456 4.625 116.459 4.625 116.462 4.625C116.465 4.625 116.469 4.625 116.472 4.625C116.475 4.625 116.478 4.625 116.481 4.625C116.484 4.625 116.487 4.625 116.49 4.625C116.493 4.625 116.496 4.625 116.499 4.625C116.502 4.625 116.505 4.625 116.508 4.625C116.511 4.625 116.514 4.625 116.517 4.625C116.52 4.625 116.523 4.625 116.526 4.625C116.53 4.625 116.533 4.625 116.536 4.625C116.539 4.625 116.542 4.625 116.545 4.625C116.548 4.625 116.551 4.625 116.554 4.625C116.557 4.625 116.56 4.625 116.563 4.625C116.566 4.625 116.569 4.625 116.572 4.625C116.575 4.625 116.578 4.625 116.581 4.625C116.584 4.625 116.588 4.625 116.591 4.625C116.594 4.625 116.597 4.625 116.6 4.625C116.603 4.625 116.606 4.625 116.609 4.625C116.612 4.625 116.615 4.625 116.618 4.625C116.621 4.625 116.624 4.625 116.627 4.625V3.625V2.625C116.624 2.625 116.621 2.625 116.618 2.625C116.615 2.625 116.612 2.625 116.609 2.625C116.606 2.625 116.603 2.625 116.6 2.625C116.597 2.625 116.594 2.625 116.591 2.625C116.588 2.625 116.584 2.625 116.581 2.625C116.578 2.625 116.575 2.625 116.572 2.625C116.569 2.625 116.566 2.625 116.563 2.625C116.56 2.625 116.557 2.625 116.554 2.625C116.551 2.625 116.548 2.625 116.545 2.625C116.542 2.625 116.539 2.625 116.536 2.625C116.533 2.625 116.53 2.625 116.526 2.625C116.523 2.625 116.52 2.625 116.517 2.625C116.514 2.625 116.511 2.625 116.508 2.625C116.505 2.625 116.502 2.625 116.499 2.625C116.496 2.625 116.493 2.625 116.49 2.625C116.487 2.625 116.484 2.625 116.481 2.625C116.478 2.625 116.475 2.625 116.472 2.625C116.469 2.625 116.465 2.625 116.462 2.625C116.459 2.625 116.456 2.625 116.453 2.625C116.45 2.625 116.447 2.625 116.444 2.625C116.441 2.625 116.438 2.625 116.435 2.625C116.432 2.625 116.429 2.625 116.426 2.625C116.423 2.625 116.42 2.625 116.417 2.625C116.414 2.625 116.411 2.625 116.407 2.625C116.404 2.625 116.401 2.625 116.398 2.625C116.395 2.625 116.392 2.625 116.389 2.625C116.386 2.625 116.383 2.625 116.38 2.625C116.377 2.625 116.374 2.625 116.371 2.625C116.368 2.625 116.365 2.625 116.362 2.625C116.359 2.625 116.356 2.625 116.353 2.625C116.349 2.625 116.346 2.625 116.343 2.625C116.34 2.625 116.337 2.625 116.334 2.625C116.331 2.625 116.328 2.625 116.325 2.625C116.322 2.625 116.319 2.625 116.316 2.625C116.313 2.625 116.31 2.625 116.307 2.625C116.304 2.625 116.301 2.625 116.298 2.625C116.295 2.625 116.292 2.625 116.288 2.625C116.285 2.625 116.282 2.625 116.279 2.625C116.276 2.625 116.273 2.625 116.27 2.625C116.267 2.625 116.264 2.625 116.261 2.625C116.258 2.625 116.255 2.625 116.252 2.625C116.249 2.625 116.246 2.625 116.243 2.625C116.24 2.625 116.237 2.625 116.234 2.625C116.23 2.625 116.227 2.625 116.224 2.625C116.221 2.625 116.218 2.625 116.215 2.625C116.212 2.625 116.209 2.625 116.206 2.625C116.203 2.625 116.2 2.625 116.197 2.625C116.194 2.625 116.191 2.625 116.188 2.625C116.185 2.625 116.182 2.625 116.179 2.625C116.176 2.625 116.172 2.625 116.169 2.625C116.166 2.625 116.163 2.625 116.16 2.625C116.157 2.625 116.154 2.625 116.151 2.625C116.148 2.625 116.145 2.625 116.142 2.625C116.139 2.625 116.136 2.625 116.133 2.625C116.13 2.625 116.127 2.625 116.124 2.625C116.121 2.625 116.118 2.625 116.115 2.625C116.111 2.625 116.108 2.625 116.105 2.625C116.102 2.625 116.099 2.625 116.096 2.625C116.093 2.625 116.09 2.625 116.087 2.625C116.084 2.625 116.081 2.625 116.078 2.625C116.075 2.625 116.072 2.625 116.069 2.625C116.066 2.625 116.063 2.625 116.06 2.625C116.057 2.625 116.053 2.625 116.05 2.625C116.047 2.625 116.044 2.625 116.041 2.625C116.038 2.625 116.035 2.625 116.032 2.625C116.029 2.625 116.026 2.625 116.023 2.625C116.02 2.625 116.017 2.625 116.014 2.625C116.011 2.625 116.008 2.625 116.005 2.625C116.002 2.625 115.999 2.625 115.995 2.625C115.992 2.625 115.989 2.625 115.986 2.625C115.983 2.625 115.98 2.625 115.977 2.625C115.974 2.625 115.971 2.625 115.968 2.625C115.965 2.625 115.962 2.625 115.959 2.625C115.956 2.625 115.953 2.625 115.95 2.625C115.947 2.625 115.944 2.625 115.941 2.625C115.938 2.625 115.934 2.625 115.931 2.625C115.928 2.625 115.925 2.625 115.922 2.625C115.919 2.625 115.916 2.625 115.913 2.625C115.91 2.625 115.907 2.625 115.904 2.625C115.901 2.625 115.898 2.625 115.895 2.625C115.892 2.625 115.889 2.625 115.886 2.625C115.883 2.625 115.88 2.625 115.876 2.625C115.873 2.625 115.87 2.625 115.867 2.625C115.864 2.625 115.861 2.625 115.858 2.625C115.855 2.625 115.852 2.625 115.849 2.625C115.846 2.625 115.843 2.625 115.84 2.625C115.837 2.625 115.834 2.625 115.831 2.625C115.828 2.625 115.825 2.625 115.822 2.625C115.818 2.625 115.815 2.625 115.812 2.625C115.809 2.625 115.806 2.625 115.803 2.625C115.8 2.625 115.797 2.625 115.794 2.625C115.791 2.625 115.788 2.625 115.785 2.625C115.782 2.625 115.779 2.625 115.776 2.625C115.773 2.625 115.77 2.625 115.767 2.625C115.764 2.625 115.76 2.625 115.757 2.625C115.754 2.625 115.751 2.625 115.748 2.625C115.745 2.625 115.742 2.625 115.739 2.625C115.736 2.625 115.733 2.625 115.73 2.625C115.727 2.625 115.724 2.625 115.721 2.625C115.718 2.625 115.715 2.625 115.712 2.625C115.709 2.625 115.706 2.625 115.703 2.625C115.699 2.625 115.696 2.625 115.693 2.625C115.69 2.625 115.687 2.625 115.684 2.625C115.681 2.625 115.678 2.625 115.675 2.625C115.672 2.625 115.669 2.625 115.666 2.625C115.663 2.625 115.66 2.625 115.657 2.625C115.654 2.625 115.651 2.625 115.648 2.625C115.645 2.625 115.641 2.625 115.638 2.625C115.635 2.625 115.632 2.625 115.629 2.625C115.626 2.625 115.623 2.625 115.62 2.625C115.617 2.625 115.614 2.625 115.611 2.625C115.608 2.625 115.605 2.625 115.602 2.625C115.599 2.625 115.596 2.625 115.593 2.625C115.59 2.625 115.587 2.625 115.583 2.625C115.58 2.625 115.577 2.625 115.574 2.625C115.571 2.625 115.568 2.625 115.565 2.625C115.562 2.625 115.559 2.625 115.556 2.625C115.553 2.625 115.55 2.625 115.547 2.625C115.544 2.625 115.541 2.625 115.538 2.625C115.535 2.625 115.532 2.625 115.529 2.625C115.526 2.625 115.522 2.625 115.519 2.625C115.516 2.625 115.513 2.625 115.51 2.625C115.507 2.625 115.504 2.625 115.501 2.625C115.498 2.625 115.495 2.625 115.492 2.625C115.489 2.625 115.486 2.625 115.483 2.625C115.48 2.625 115.477 2.625 115.474 2.625C115.471 2.625 115.468 2.625 115.464 2.625C115.461 2.625 115.458 2.625 115.455 2.625C115.452 2.625 115.449 2.625 115.446 2.625C115.443 2.625 115.44 2.625 115.437 2.625C115.434 2.625 115.431 2.625 115.428 2.625C115.425 2.625 115.422 2.625 115.419 2.625C115.416 2.625 115.413 2.625 115.41 2.625C115.406 2.625 115.403 2.625 115.4 2.625C115.397 2.625 115.394 2.625 115.391 2.625C115.388 2.625 115.385 2.625 115.382 2.625C115.379 2.625 115.376 2.625 115.373 2.625C115.37 2.625 115.367 2.625 115.364 2.625C115.361 2.625 115.358 2.625 115.355 2.625C115.352 2.625 115.349 2.625 115.345 2.625C115.342 2.625 115.339 2.625 115.336 2.625C115.333 2.625 115.33 2.625 115.327 2.625C115.324 2.625 115.321 2.625 115.318 2.625C115.315 2.625 115.312 2.625 115.309 2.625C115.306 2.625 115.303 2.625 115.3 2.625C115.297 2.625 115.294 2.625 115.291 2.625C115.287 2.625 115.284 2.625 115.281 2.625C115.278 2.625 115.275 2.625 115.272 2.625C115.269 2.625 115.266 2.625 115.263 2.625C115.26 2.625 115.257 2.625 115.254 2.625C115.251 2.625 115.248 2.625 115.245 2.625C115.242 2.625 115.239 2.625 115.236 2.625C115.233 2.625 115.229 2.625 115.226 2.625C115.223 2.625 115.22 2.625 115.217 2.625C115.214 2.625 115.211 2.625 115.208 2.625C115.205 2.625 115.202 2.625 115.199 2.625C115.196 2.625 115.193 2.625 115.19 2.625C115.187 2.625 115.184 2.625 115.181 2.625C115.178 2.625 115.175 2.625 115.172 2.625C115.168 2.625 115.165 2.625 115.162 2.625C115.159 2.625 115.156 2.625 115.153 2.625C115.15 2.625 115.147 2.625 115.144 2.625C115.141 2.625 115.138 2.625 115.135 2.625C115.132 2.625 115.129 2.625 115.126 2.625C115.123 2.625 115.12 2.625 115.117 2.625C115.114 2.625 115.11 2.625 115.107 2.625C115.104 2.625 115.101 2.625 115.098 2.625C115.095 2.625 115.092 2.625 115.089 2.625C115.086 2.625 115.083 2.625 115.08 2.625C115.077 2.625 115.074 2.625 115.071 2.625C115.068 2.625 115.065 2.625 115.062 2.625C115.059 2.625 115.056 2.625 115.052 2.625C115.049 2.625 115.046 2.625 115.043 2.625C115.04 2.625 115.037 2.625 115.034 2.625C115.031 2.625 115.028 2.625 115.025 2.625C115.022 2.625 115.019 2.625 115.016 2.625C115.013 2.625 115.01 2.625 115.007 2.625C115.004 2.625 115.001 2.625 114.998 2.625C114.995 2.625 114.991 2.625 114.988 2.625C114.985 2.625 114.982 2.625 114.979 2.625C114.976 2.625 114.973 2.625 114.97 2.625C114.967 2.625 114.964 2.625 114.961 2.625C114.958 2.625 114.955 2.625 114.952 2.625C114.949 2.625 114.946 2.625 114.943 2.625C114.94 2.625 114.937 2.625 114.933 2.625C114.93 2.625 114.927 2.625 114.924 2.625C114.921 2.625 114.918 2.625 114.915 2.625C114.912 2.625 114.909 2.625 114.906 2.625C114.903 2.625 114.9 2.625 114.897 2.625C114.894 2.625 114.891 2.625 114.888 2.625C114.885 2.625 114.882 2.625 114.879 2.625C114.875 2.625 114.872 2.625 114.869 2.625C114.866 2.625 114.863 2.625 114.86 2.625C114.857 2.625 114.854 2.625 114.851 2.625C114.848 2.625 114.845 2.625 114.842 2.625C114.839 2.625 114.836 2.625 114.833 2.625C114.83 2.625 114.827 2.625 114.824 2.625C114.821 2.625 114.818 2.625 114.814 2.625C114.811 2.625 114.808 2.625 114.805 2.625C114.802 2.625 114.799 2.625 114.796 2.625C114.793 2.625 114.79 2.625 114.787 2.625C114.784 2.625 114.781 2.625 114.778 2.625C114.775 2.625 114.772 2.625 114.769 2.625C114.766 2.625 114.763 2.625 114.76 2.625C114.756 2.625 114.753 2.625 114.75 2.625C114.747 2.625 114.744 2.625 114.741 2.625C114.738 2.625 114.735 2.625 114.732 2.625C114.729 2.625 114.726 2.625 114.723 2.625C114.72 2.625 114.717 2.625 114.714 2.625C114.711 2.625 114.708 2.625 114.705 2.625C114.702 2.625 114.698 2.625 114.695 2.625C114.692 2.625 114.689 2.625 114.686 2.625C114.683 2.625 114.68 2.625 114.677 2.625C114.674 2.625 114.671 2.625 114.668 2.625C114.665 2.625 114.662 2.625 114.659 2.625C114.656 2.625 114.653 2.625 114.65 2.625C114.647 2.625 114.644 2.625 114.641 2.625C114.637 2.625 114.634 2.625 114.631 2.625C114.628 2.625 114.625 2.625 114.622 2.625C114.619 2.625 114.616 2.625 114.613 2.625C114.61 2.625 114.607 2.625 114.604 2.625C114.601 2.625 114.598 2.625 114.595 2.625C114.592 2.625 114.589 2.625 114.586 2.625C114.583 2.625 114.579 2.625 114.576 2.625C114.573 2.625 114.57 2.625 114.567 2.625C114.564 2.625 114.561 2.625 114.558 2.625C114.555 2.625 114.552 2.625 114.549 2.625C114.546 2.625 114.543 2.625 114.54 2.625C114.537 2.625 114.534 2.625 114.531 2.625C114.528 2.625 114.525 2.625 114.521 2.625C114.518 2.625 114.515 2.625 114.512 2.625C114.509 2.625 114.506 2.625 114.503 2.625C114.5 2.625 114.497 2.625 114.494 2.625C114.491 2.625 114.488 2.625 114.485 2.625C114.482 2.625 114.479 2.625 114.476 2.625C114.473 2.625 114.47 2.625 114.467 2.625C114.464 2.625 114.46 2.625 114.457 2.625C114.454 2.625 114.451 2.625 114.448 2.625C114.445 2.625 114.442 2.625 114.439 2.625C114.436 2.625 114.433 2.625 114.43 2.625C114.427 2.625 114.424 2.625 114.421 2.625C114.418 2.625 114.415 2.625 114.412 2.625C114.409 2.625 114.406 2.625 114.402 2.625C114.399 2.625 114.396 2.625 114.393 2.625C114.39 2.625 114.387 2.625 114.384 2.625C114.381 2.625 114.378 2.625 114.375 2.625C114.372 2.625 114.369 2.625 114.366 2.625C114.363 2.625 114.36 2.625 114.357 2.625C114.354 2.625 114.351 2.625 114.348 2.625C114.344 2.625 114.341 2.625 114.338 2.625C114.335 2.625 114.332 2.625 114.329 2.625C114.326 2.625 114.323 2.625 114.32 2.625C114.317 2.625 114.314 2.625 114.311 2.625C114.308 2.625 114.305 2.625 114.302 2.625C114.299 2.625 114.296 2.625 114.293 2.625C114.29 2.625 114.286 2.625 114.283 2.625C114.28 2.625 114.277 2.625 114.274 2.625C114.271 2.625 114.268 2.625 114.265 2.625C114.262 2.625 114.259 2.625 114.256 2.625C114.253 2.625 114.25 2.625 114.247 2.625C114.244 2.625 114.241 2.625 114.238 2.625C114.235 2.625 114.232 2.625 114.229 2.625C114.225 2.625 114.222 2.625 114.219 2.625C114.216 2.625 114.213 2.625 114.21 2.625C114.207 2.625 114.204 2.625 114.201 2.625C114.198 2.625 114.195 2.625 114.192 2.625C114.189 2.625 114.186 2.625 114.183 2.625C114.18 2.625 114.177 2.625 114.174 2.625C114.171 2.625 114.167 2.625 114.164 2.625C114.161 2.625 114.158 2.625 114.155 2.625C114.152 2.625 114.149 2.625 114.146 2.625C114.143 2.625 114.14 2.625 114.137 2.625C114.134 2.625 114.131 2.625 114.128 2.625C114.125 2.625 114.122 2.625 114.119 2.625C114.116 2.625 114.113 2.625 114.109 2.625C114.106 2.625 114.103 2.625 114.1 2.625C114.097 2.625 114.094 2.625 114.091 2.625C114.088 2.625 114.085 2.625 114.082 2.625C114.079 2.625 114.076 2.625 114.073 2.625C114.07 2.625 114.067 2.625 114.064 2.625C114.061 2.625 114.058 2.625 114.055 2.625C114.052 2.625 114.048 2.625 114.045 2.625C114.042 2.625 114.039 2.625 114.036 2.625C114.033 2.625 114.03 2.625 114.027 2.625C114.024 2.625 114.021 2.625 114.018 2.625C114.015 2.625 114.012 2.625 114.009 2.625C114.006 2.625 114.003 2.625 114 2.625C113.997 2.625 113.994 2.625 113.99 2.625C113.987 2.625 113.984 2.625 113.981 2.625C113.978 2.625 113.975 2.625 113.972 2.625C113.969 2.625 113.966 2.625 113.963 2.625C113.96 2.625 113.957 2.625 113.954 2.625C113.951 2.625 113.948 2.625 113.945 2.625C113.942 2.625 113.939 2.625 113.936 2.625C113.932 2.625 113.929 2.625 113.926 2.625C113.923 2.625 113.92 2.625 113.917 2.625C113.914 2.625 113.911 2.625 113.908 2.625C113.905 2.625 113.902 2.625 113.899 2.625C113.896 2.625 113.893 2.625 113.89 2.625C113.887 2.625 113.884 2.625 113.881 2.625C113.878 2.625 113.875 2.625 113.871 2.625C113.868 2.625 113.865 2.625 113.862 2.625C113.859 2.625 113.856 2.625 113.853 2.625C113.85 2.625 113.847 2.625 113.844 2.625C113.841 2.625 113.838 2.625 113.835 2.625C113.832 2.625 113.829 2.625 113.826 2.625C113.823 2.625 113.82 2.625 113.817 2.625C113.813 2.625 113.81 2.625 113.807 2.625C113.804 2.625 113.801 2.625 113.798 2.625C113.795 2.625 113.792 2.625 113.789 2.625C113.786 2.625 113.783 2.625 113.78 2.625C113.777 2.625 113.774 2.625 113.771 2.625C113.768 2.625 113.765 2.625 113.762 2.625C113.759 2.625 113.755 2.625 113.752 2.625C113.749 2.625 113.746 2.625 113.743 2.625C113.74 2.625 113.737 2.625 113.734 2.625C113.731 2.625 113.728 2.625 113.725 2.625C113.722 2.625 113.719 2.625 113.716 2.625C113.713 2.625 113.71 2.625 113.707 2.625C113.704 2.625 113.701 2.625 113.698 2.625C113.694 2.625 113.691 2.625 113.688 2.625C113.685 2.625 113.682 2.625 113.679 2.625C113.676 2.625 113.673 2.625 113.67 2.625C113.667 2.625 113.664 2.625 113.661 2.625C113.658 2.625 113.655 2.625 113.652 2.625C113.649 2.625 113.646 2.625 113.643 2.625C113.64 2.625 113.636 2.625 113.633 2.625C113.63 2.625 113.627 2.625 113.624 2.625C113.621 2.625 113.618 2.625 113.615 2.625C113.612 2.625 113.609 2.625 113.606 2.625C113.603 2.625 113.6 2.625 113.597 2.625C113.594 2.625 113.591 2.625 113.588 2.625C113.585 2.625 113.582 2.625 113.578 2.625C113.575 2.625 113.572 2.625 113.569 2.625C113.566 2.625 113.563 2.625 113.56 2.625C113.557 2.625 113.554 2.625 113.551 2.625C113.548 2.625 113.545 2.625 113.542 2.625C113.539 2.625 113.536 2.625 113.533 2.625C113.53 2.625 113.527 2.625 113.524 2.625C113.521 2.625 113.517 2.625 113.514 2.625C113.511 2.625 113.508 2.625 113.505 2.625C113.502 2.625 113.499 2.625 113.496 2.625C113.493 2.625 113.49 2.625 113.487 2.625C113.484 2.625 113.481 2.625 113.478 2.625C113.475 2.625 113.472 2.625 113.469 2.625C113.466 2.625 113.463 2.625 113.459 2.625C113.456 2.625 113.453 2.625 113.45 2.625C113.447 2.625 113.444 2.625 113.441 2.625C113.438 2.625 113.435 2.625 113.432 2.625C113.429 2.625 113.426 2.625 113.423 2.625C113.42 2.625 113.417 2.625 113.414 2.625C113.411 2.625 113.408 2.625 113.405 2.625C113.401 2.625 113.398 2.625 113.395 2.625C113.392 2.625 113.389 2.625 113.386 2.625C113.383 2.625 113.38 2.625 113.377 2.625C113.374 2.625 113.371 2.625 113.368 2.625C113.365 2.625 113.362 2.625 113.359 2.625C113.356 2.625 113.353 2.625 113.35 2.625C113.347 2.625 113.344 2.625 113.34 2.625C113.337 2.625 113.334 2.625 113.331 2.625C113.328 2.625 113.325 2.625 113.322 2.625C113.319 2.625 113.316 2.625 113.313 2.625C113.31 2.625 113.307 2.625 113.304 2.625C113.301 2.625 113.298 2.625 113.295 2.625C113.292 2.625 113.289 2.625 113.286 2.625C113.282 2.625 113.279 2.625 113.276 2.625C113.273 2.625 113.27 2.625 113.267 2.625C113.264 2.625 113.261 2.625 113.258 2.625C113.255 2.625 113.252 2.625 113.249 2.625C113.246 2.625 113.243 2.625 113.24 2.625C113.237 2.625 113.234 2.625 113.231 2.625C113.228 2.625 113.224 2.625 113.221 2.625C113.218 2.625 113.215 2.625 113.212 2.625C113.209 2.625 113.206 2.625 113.203 2.625C113.2 2.625 113.197 2.625 113.194 2.625C113.191 2.625 113.188 2.625 113.185 2.625C113.182 2.625 113.179 2.625 113.176 2.625C113.173 2.625 113.17 2.625 113.167 2.625C113.163 2.625 113.16 2.625 113.157 2.625C113.154 2.625 113.151 2.625 113.148 2.625C113.145 2.625 113.142 2.625 113.139 2.625C113.136 2.625 113.133 2.625 113.13 2.625C113.127 2.625 113.124 2.625 113.121 2.625C113.118 2.625 113.115 2.625 113.112 2.625C113.109 2.625 113.105 2.625 113.102 2.625C113.099 2.625 113.096 2.625 113.093 2.625C113.09 2.625 113.087 2.625 113.084 2.625C113.081 2.625 113.078 2.625 113.075 2.625C113.072 2.625 113.069 2.625 113.066 2.625C113.063 2.625 113.06 2.625 113.057 2.625C113.054 2.625 113.051 2.625 113.047 2.625C113.044 2.625 113.041 2.625 113.038 2.625C113.035 2.625 113.032 2.625 113.029 2.625C113.026 2.625 113.023 2.625 113.02 2.625C113.017 2.625 113.014 2.625 113.011 2.625C113.008 2.625 113.005 2.625 113.002 2.625C112.999 2.625 112.996 2.625 112.993 2.625C112.99 2.625 112.986 2.625 112.983 2.625C112.98 2.625 112.977 2.625 112.974 2.625C112.971 2.625 112.968 2.625 112.965 2.625C112.962 2.625 112.959 2.625 112.956 2.625C112.953 2.625 112.95 2.625 112.947 2.625C112.944 2.625 112.941 2.625 112.938 2.625C112.935 2.625 112.932 2.625 112.928 2.625C112.925 2.625 112.922 2.625 112.919 2.625C112.916 2.625 112.913 2.625 112.91 2.625C112.907 2.625 112.904 2.625 112.901 2.625C112.898 2.625 112.895 2.625 112.892 2.625C112.889 2.625 112.886 2.625 112.883 2.625C112.88 2.625 112.877 2.625 112.874 2.625C112.87 2.625 112.867 2.625 112.864 2.625C112.861 2.625 112.858 2.625 112.855 2.625C112.852 2.625 112.849 2.625 112.846 2.625C112.843 2.625 112.84 2.625 112.837 2.625C112.834 2.625 112.831 2.625 112.828 2.625C112.825 2.625 112.822 2.625 112.819 2.625C112.816 2.625 112.812 2.625 112.809 2.625C112.806 2.625 112.803 2.625 112.8 2.625C112.797 2.625 112.794 2.625 112.791 2.625C112.788 2.625 112.785 2.625 112.782 2.625C112.779 2.625 112.776 2.625 112.773 2.625C112.77 2.625 112.767 2.625 112.764 2.625C112.761 2.625 112.758 2.625 112.755 2.625C112.751 2.625 112.748 2.625 112.745 2.625C112.742 2.625 112.739 2.625 112.736 2.625C112.733 2.625 112.73 2.625 112.727 2.625C112.724 2.625 112.721 2.625 112.718 2.625C112.715 2.625 112.712 2.625 112.709 2.625C112.706 2.625 112.703 2.625 112.7 2.625C112.697 2.625 112.693 2.625 112.69 2.625C112.687 2.625 112.684 2.625 112.681 2.625C112.678 2.625 112.675 2.625 112.672 2.625C112.669 2.625 112.666 2.625 112.663 2.625C112.66 2.625 112.657 2.625 112.654 2.625C112.651 2.625 112.648 2.625 112.645 2.625C112.642 2.625 112.639 2.625 112.635 2.625C112.632 2.625 112.629 2.625 112.626 2.625C112.623 2.625 112.62 2.625 112.617 2.625C112.614 2.625 112.611 2.625 112.608 2.625C112.605 2.625 112.602 2.625 112.599 2.625C112.596 2.625 112.593 2.625 112.59 2.625C112.587 2.625 112.584 2.625 112.581 2.625C112.578 2.625 112.574 2.625 112.571 2.625C112.568 2.625 112.565 2.625 112.562 2.625C112.559 2.625 112.556 2.625 112.553 2.625C112.55 2.625 112.547 2.625 112.544 2.625C112.541 2.625 112.538 2.625 112.535 2.625C112.532 2.625 112.529 2.625 112.526 2.625C112.523 2.625 112.52 2.625 112.516 2.625C112.513 2.625 112.51 2.625 112.507 2.625C112.504 2.625 112.501 2.625 112.498 2.625C112.495 2.625 112.492 2.625 112.489 2.625C112.486 2.625 112.483 2.625 112.48 2.625C112.477 2.625 112.474 2.625 112.471 2.625C112.468 2.625 112.465 2.625 112.462 2.625C112.458 2.625 112.455 2.625 112.452 2.625C112.449 2.625 112.446 2.625 112.443 2.625C112.44 2.625 112.437 2.625 112.434 2.625C112.431 2.625 112.428 2.625 112.425 2.625C112.422 2.625 112.419 2.625 112.416 2.625C112.413 2.625 112.41 2.625 112.407 2.625C112.404 2.625 112.401 2.625 112.397 2.625C112.394 2.625 112.391 2.625 112.388 2.625C112.385 2.625 112.382 2.625 112.379 2.625C112.376 2.625 112.373 2.625 112.37 2.625C112.367 2.625 112.364 2.625 112.361 2.625C112.358 2.625 112.355 2.625 112.352 2.625C112.349 2.625 112.346 2.625 112.343 2.625C112.339 2.625 112.336 2.625 112.333 2.625C112.33 2.625 112.327 2.625 112.324 2.625C112.321 2.625 112.318 2.625 112.315 2.625C112.312 2.625 112.309 2.625 112.306 2.625C112.303 2.625 112.3 2.625 112.297 2.625C112.294 2.625 112.291 2.625 112.288 2.625C112.285 2.625 112.281 2.625 112.278 2.625C112.275 2.625 112.272 2.625 112.269 2.625C112.266 2.625 112.263 2.625 112.26 2.625C112.257 2.625 112.254 2.625 112.251 2.625C112.248 2.625 112.245 2.625 112.242 2.625C112.239 2.625 112.236 2.625 112.233 2.625C112.23 2.625 112.227 2.625 112.224 2.625C112.22 2.625 112.217 2.625 112.214 2.625C112.211 2.625 112.208 2.625 112.205 2.625C112.202 2.625 112.199 2.625 112.196 2.625C112.193 2.625 112.19 2.625 112.187 2.625C112.184 2.625 112.181 2.625 112.178 2.625C112.175 2.625 112.172 2.625 112.169 2.625C112.166 2.625 112.162 2.625 112.159 2.625C112.156 2.625 112.153 2.625 112.15 2.625C112.147 2.625 112.144 2.625 112.141 2.625C112.138 2.625 112.135 2.625 112.132 2.625C112.129 2.625 112.126 2.625 112.123 2.625C112.12 2.625 112.117 2.625 112.114 2.625C112.111 2.625 112.108 2.625 112.104 2.625C112.101 2.625 112.098 2.625 112.095 2.625C112.092 2.625 112.089 2.625 112.086 2.625C112.083 2.625 112.08 2.625 112.077 2.625C112.074 2.625 112.071 2.625 112.068 2.625C112.065 2.625 112.062 2.625 112.059 2.625C112.056 2.625 112.053 2.625 112.05 2.625C112.047 2.625 112.043 2.625 112.04 2.625C112.037 2.625 112.034 2.625 112.031 2.625C112.028 2.625 112.025 2.625 112.022 2.625C112.019 2.625 112.016 2.625 112.013 2.625C112.01 2.625 112.007 2.625 112.004 2.625C112.001 2.625 111.998 2.625 111.995 2.625C111.992 2.625 111.989 2.625 111.985 2.625C111.982 2.625 111.979 2.625 111.976 2.625C111.973 2.625 111.97 2.625 111.967 2.625C111.964 2.625 111.961 2.625 111.958 2.625C111.955 2.625 111.952 2.625 111.949 2.625C111.946 2.625 111.943 2.625 111.94 2.625V3.625ZM116.627 3.625L116.647 4.62481C118.254 4.5933 119.86 4.53029 121.467 4.43577L121.408 3.4375L121.35 2.43923C119.769 2.53221 118.188 2.5942 116.608 2.62519L116.627 3.625ZM196.69 1.09375L197.688 1.1563L197.754 0.09375H196.69V1.09375ZM192.377 69.9062L192.421 70.9053L193.319 70.8659L193.375 69.9688L192.377 69.9062ZM171.002 70.8438L170.002 70.8386L169.997 71.8888L171.046 71.8428L171.002 70.8438ZM171.19 34.5625L172.19 34.5677L170.24 34.249L171.19 34.5625ZM161.533 63.8125V64.8125H162.256L162.483 64.126L161.533 63.8125ZM153.283 63.8125L152.321 64.0849L152.527 64.8125H153.283V63.8125ZM145.877 37.6562L146.839 37.3838L144.877 37.6532L145.877 37.6562ZM145.783 68.0312L145.814 69.0308L146.78 69.0015L146.783 68.0343L145.783 68.0312ZM124.127 68.6875L123.127 68.673L123.112 69.7187L124.157 69.687L124.127 68.6875ZM125.065 3.90625L125.026 2.90701L124.079 2.94387L124.065 3.89178L125.065 3.90625ZM149.158 2.96875L150.114 2.67426L149.888 1.93962L149.12 1.96951L149.158 2.96875ZM158.721 34L157.765 34.2945L158.613 37.046L159.653 34.3613L158.721 34ZM171.471 1.09375V0.09375H170.786L170.538 0.732458L171.471 1.09375ZM196.69 1.09375L195.692 1.0312L191.379 69.8437L192.377 69.9062L193.375 69.9688L197.688 1.1563L196.69 1.09375ZM192.377 69.9062L192.333 68.9072L170.958 69.8447L171.002 70.8438L171.046 71.8428L192.421 70.9053L192.377 69.9062ZM171.002 70.8438L172.002 70.8489L172.19 34.5677L171.19 34.5625L170.19 34.5573L170.002 70.8386L171.002 70.8438ZM171.19 34.5625L170.24 34.249L160.584 63.499L161.533 63.8125L162.483 64.126L172.139 34.876L171.19 34.5625ZM161.533 63.8125V62.8125H153.283V63.8125V64.8125H161.533V63.8125ZM153.283 63.8125L154.246 63.5401L146.839 37.3838L145.877 37.6562L144.915 37.9287L152.321 64.0849L153.283 63.8125ZM145.877 37.6562L144.877 37.6532L144.783 68.0282L145.783 68.0312L146.783 68.0343L146.877 37.6593L145.877 37.6562ZM145.783 68.0312L145.753 67.0317L124.097 67.688L124.127 68.6875L124.157 69.687L145.814 69.0308L145.783 68.0312ZM124.127 68.6875L125.127 68.702L126.065 3.92072L125.065 3.90625L124.065 3.89178L123.127 68.673L124.127 68.6875ZM125.065 3.90625L125.104 4.90549L149.197 3.96799L149.158 2.96875L149.12 1.96951L125.026 2.90701L125.065 3.90625ZM149.158 2.96875L148.203 3.26324L157.765 34.2945L158.721 34L159.677 33.7055L150.114 2.67426L149.158 2.96875ZM158.721 34L159.653 34.3613L172.403 1.45504L171.471 1.09375L170.538 0.732458L157.788 33.6387L158.721 34ZM171.471 1.09375V2.09375H196.69V1.09375V0.09375H171.471V1.09375ZM244.127 19.8438L244.911 20.4648L245.145 20.1698L245.126 19.7938L244.127 19.8438ZM222.658 46.9375L221.875 46.3164L220.59 47.9375H222.658V46.9375ZM242.44 46.9375L243.439 46.9045L243.407 45.9375H242.44V46.9375ZM243.096 66.8125L243.136 67.8117L244.128 67.7717L244.095 66.7795L243.096 66.8125ZM201.283 68.5L200.289 68.6015L200.384 69.5371L201.324 69.4992L201.283 68.5ZM199.408 50.125L198.634 49.4929L198.372 49.8142L198.414 50.2265L199.408 50.125ZM223.877 20.125L224.652 20.7571L226.112 18.9673L223.808 19.1274L223.877 20.125ZM199.596 21.8125L198.596 21.8224L198.607 22.8837L199.665 22.8101L199.596 21.8125ZM199.408 2.96875V1.96875H198.398L198.408 2.9787L199.408 2.96875ZM243.283 2.96875L244.282 2.91881L244.235 1.96875H243.283V2.96875ZM244.127 19.8438L243.343 19.2227L221.875 46.3164L222.658 46.9375L223.442 47.5586L244.911 20.4648L244.127 19.8438ZM222.658 46.9375V47.9375H242.44V46.9375V45.9375H222.658V46.9375ZM242.44 46.9375L241.44 46.9705L242.096 66.8455L243.096 66.8125L244.095 66.7795L243.439 46.9045L242.44 46.9375ZM243.096 66.8125L243.056 65.8133L201.243 67.5008L201.283 68.5L201.324 69.4992L243.136 67.8117L243.096 66.8125ZM201.283 68.5L202.278 68.3985L200.403 50.0235L199.408 50.125L198.414 50.2265L200.289 68.6015L201.283 68.5ZM199.408 50.125L200.183 50.7571L224.652 20.7571L223.877 20.125L223.102 19.4929L198.634 49.4929L199.408 50.125ZM223.877 20.125L223.808 19.1274L199.527 20.8149L199.596 21.8125L199.665 22.8101L223.947 21.1226L223.877 20.125ZM199.596 21.8125L200.596 21.8026L200.408 2.9588L199.408 2.96875L198.408 2.9787L198.596 21.8224L199.596 21.8125ZM199.408 2.96875V3.96875H243.283V2.96875V1.96875H199.408V2.96875ZM243.283 2.96875L242.285 3.01869L243.128 19.8937L244.127 19.8438L245.126 19.7938L244.282 2.91881L243.283 2.96875ZM305.58 5.96875L306.433 6.49074L307.292 5.08749L305.651 4.97125L305.58 5.96875ZM283.549 41.9688L282.696 41.4468L282.542 41.6985L282.549 41.9935L283.549 41.9688ZM284.205 68.5V69.5H285.23L285.205 68.4753L284.205 68.5ZM260.112 68.5L259.112 68.4787L259.09 69.5H260.112V68.5ZM260.674 42.1562L261.674 42.1776L261.679 41.9332L261.571 41.7139L260.674 42.1562ZM243.518 7.375L243.393 6.38278L242 6.55768L242.621 7.81737L243.518 7.375ZM267.424 4.375L268.362 4.02769L268.086 3.28404L267.3 3.38278L267.424 4.375ZM274.924 24.625L273.986 24.9723L274.885 27.3987L275.852 24.9986L274.924 24.625ZM283.08 4.375L283.151 3.3775L282.425 3.32606L282.153 4.00139L283.08 4.375ZM305.58 5.96875L304.727 5.44676L282.696 41.4468L283.549 41.9688L284.402 42.4907L306.433 6.49074L305.58 5.96875ZM283.549 41.9688L282.549 41.9935L283.206 68.5247L284.205 68.5L285.205 68.4753L284.549 41.944L283.549 41.9688ZM284.205 68.5V67.5H260.112V68.5V69.5H284.205V68.5ZM260.112 68.5L261.111 68.5213L261.674 42.1776L260.674 42.1562L259.674 42.1349L259.112 68.4787L260.112 68.5ZM260.674 42.1562L261.571 41.7139L244.415 6.93263L243.518 7.375L242.621 7.81737L259.777 42.5986L260.674 42.1562ZM243.518 7.375L243.642 8.36722L267.549 5.36722L267.424 4.375L267.3 3.38278L243.393 6.38278L243.518 7.375ZM267.424 4.375L266.486 4.72231L273.986 24.9723L274.924 24.625L275.862 24.2777L268.362 4.02769L267.424 4.375ZM274.924 24.625L275.852 24.9986L284.008 4.74861L283.08 4.375L282.153 4.00139L273.996 24.2514L274.924 24.625ZM283.08 4.375L283.01 5.3725L305.51 6.96625L305.58 5.96875L305.651 4.97125L283.151 3.3775L283.08 4.375ZM335.721 51.1562V52.1562H336.464L336.678 51.4448L335.721 51.1562ZM319.877 51.1562L318.879 51.2221L318.941 52.1562H319.877V51.1562ZM320.44 42.8594L321.406 43.1179L321.407 43.1145L320.44 42.8594ZM322.83 37.2812L322.006 36.7147L322.004 36.7185L322.83 37.2812ZM326.252 33.6719L326.839 34.4815L326.843 34.4789L326.252 33.6719ZM329.955 31.2812L330.439 32.1565L330.447 32.1522L329.955 31.2812ZM333.143 29.3125L332.588 28.4804L332.582 28.4848L332.575 28.4893L333.143 29.3125ZM335.065 26.9688L334.133 26.6063L334.129 26.6154L334.126 26.6245L335.065 26.9688ZM335.252 25.0469L334.26 25.1709L334.261 25.1762L335.252 25.0469ZM334.268 22.9375L333.491 23.5667L333.499 23.5776L333.509 23.5883L334.268 22.9375ZM331.83 21.2969L331.427 22.2118L331.443 22.2189L331.459 22.2254L331.83 21.2969ZM323.627 20.9219L323.749 21.9145L323.757 21.9134L323.766 21.9122L323.627 20.9219ZM318.799 21.8594L319.033 22.8316L319.042 22.8296L319.05 22.8274L318.799 21.8594ZM313.783 23.4062L314.127 24.3456L314.137 24.3419L313.783 23.4062ZM309.377 25.4688L308.383 25.5803L308.556 27.1211L309.889 26.328L309.377 25.4688ZM307.315 7.09375L306.804 6.23421L306.249 6.56401L306.321 7.20529L307.315 7.09375ZM311.205 4.98438L311.653 5.87883L311.66 5.87498L311.205 4.98438ZM316.033 3.01562L316.339 3.96765L316.347 3.96519L316.355 3.9626L316.033 3.01562ZM339.283 2.59375L338.986 3.54839L338.988 3.54915L339.283 2.59375ZM354.377 14.9219L353.481 15.3654L353.483 15.3691L354.377 14.9219ZM355.362 32.4531L356.265 32.8812L356.268 32.8752L355.362 32.4531ZM342.94 42.3438L343.449 43.2043L343.454 43.2012L342.94 42.3438ZM338.674 45.7188L337.959 45.02L337.95 45.0287L338.674 45.7188ZM335.112 70.4688L334.417 69.7493L334.404 69.7615L334.392 69.7742L335.112 70.4688ZM332.018 72.5781L331.63 71.6565L331.62 71.6608L331.609 71.6653L332.018 72.5781ZM324.377 72.5781L324.786 71.6653L324.775 71.6608L324.765 71.6565L324.377 72.5781ZM319.127 67.375L318.206 67.7631L318.21 67.7733L318.214 67.7834L319.127 67.375ZM319.127 59.6875L318.211 59.2879L318.206 59.2979L318.202 59.3079L319.127 59.6875ZM335.112 56.5469L334.392 57.2415L334.404 57.2541L334.417 57.2663L335.112 56.5469ZM335.721 51.1562V50.1562H319.877V51.1562V52.1562H335.721V51.1562ZM319.877 51.1562L320.875 51.0904C320.661 47.8428 320.85 45.1953 321.406 43.1179L320.44 42.8594L319.474 42.6009C318.842 44.961 318.656 47.8447 318.879 51.2221L319.877 51.1562ZM320.44 42.8594L321.407 43.1145C321.98 40.9422 322.737 39.195 323.657 37.844L322.83 37.2812L322.004 36.7185C320.924 38.305 320.087 40.2765 319.473 42.6042L320.44 42.8594ZM322.83 37.2812L323.654 37.8478C324.632 36.4253 325.696 35.31 326.839 34.4815L326.252 33.6719L325.665 32.8623C324.308 33.8462 323.091 35.1372 322.006 36.7147L322.83 37.2812ZM326.252 33.6719L326.843 34.4789C328.095 33.5623 329.294 32.7892 330.439 32.1565L329.955 31.2812L329.472 30.406C328.242 31.0858 326.971 31.9065 325.662 32.8648L326.252 33.6719ZM329.955 31.2812L330.447 32.1522C331.685 31.4537 332.774 30.7816 333.711 30.1357L333.143 29.3125L332.575 28.4893C331.699 29.0934 330.663 29.7338 329.464 30.4103L329.955 31.2812ZM333.143 29.3125L333.698 30.1446C334.788 29.4176 335.578 28.4749 336.004 27.313L335.065 26.9688L334.126 26.6245C333.864 27.3376 333.373 27.9574 332.588 28.4804L333.143 29.3125ZM335.065 26.9688L335.997 27.3312C336.287 26.5838 336.355 25.7693 336.244 24.9175L335.252 25.0469L334.261 25.1762C334.337 25.7619 334.28 26.2287 334.133 26.6063L335.065 26.9688ZM335.252 25.0469L336.244 24.9228C336.123 23.9513 335.698 23.0699 335.027 22.2867L334.268 22.9375L333.509 23.5883C333.962 24.1176 334.194 24.6424 334.26 25.1709L335.252 25.0469ZM334.268 22.9375L335.045 22.3083C334.372 21.4771 333.395 20.8456 332.202 20.3684L331.83 21.2969L331.459 22.2254C332.454 22.6232 333.101 23.0854 333.491 23.5667L334.268 22.9375ZM331.83 21.2969L332.234 20.382C330.998 19.8369 329.455 19.5938 327.658 19.5938V20.5938V21.5938C329.299 21.5938 330.537 21.8194 331.427 22.2118L331.83 21.2969ZM327.658 20.5938V19.5938C326.473 19.5938 325.08 19.7087 323.489 19.9315L323.627 20.9219L323.766 21.9122C325.299 21.6976 326.594 21.5938 327.658 21.5938V20.5938ZM323.627 20.9219L323.506 19.9293C321.926 20.1228 320.273 20.4442 318.548 20.8914L318.799 21.8594L319.05 22.8274C320.7 22.3995 322.266 22.096 323.749 21.9145L323.627 20.9219ZM318.799 21.8594L318.565 20.8872C316.836 21.3033 315.125 21.8313 313.43 22.4706L313.783 23.4062L314.137 24.3419C315.755 23.7312 317.387 23.2279 319.033 22.8316L318.799 21.8594ZM313.783 23.4062L313.44 22.467C311.764 23.0793 310.238 23.7925 308.866 24.6095L309.377 25.4688L309.889 26.328C311.141 25.5825 312.553 24.9207 314.127 24.3455L313.783 23.4062ZM309.377 25.4688L310.371 25.3572L308.308 6.98221L307.315 7.09375L306.321 7.20529L308.383 25.5803L309.377 25.4688ZM307.315 7.09375L307.826 7.95329C308.958 7.28029 310.233 6.58871 311.653 5.8788L311.205 4.98438L310.758 4.08995C309.303 4.81754 307.984 5.53221 306.804 6.23421L307.315 7.09375ZM311.205 4.98438L311.66 5.87498C313.076 5.15201 314.635 4.51555 316.339 3.96765L316.033 3.01562L315.727 2.0636C313.932 2.6407 312.272 3.31674 310.751 4.09377L311.205 4.98438ZM316.033 3.01562L316.355 3.9626C318.053 3.38656 319.911 2.91373 321.931 2.54637L321.752 1.5625L321.573 0.57863C319.469 0.961269 317.514 1.45719 315.712 2.06865L316.033 3.01562ZM321.752 1.5625L321.931 2.54637C323.927 2.18341 326.086 2 328.408 2V1V0C325.981 0 323.702 0.191595 321.573 0.57863L321.752 1.5625ZM328.408 1V2C332.159 2 335.683 2.51819 338.986 3.54839L339.283 2.59375L339.581 1.63911C336.071 0.544312 332.345 0 328.408 0V1ZM339.283 2.59375L338.988 3.54915C342.316 4.57785 345.201 6.08412 347.656 8.06026L348.283 7.28125L348.91 6.50224C346.241 4.35338 343.126 2.73465 339.579 1.63835L339.283 2.59375ZM348.283 7.28125L347.656 8.06026C350.103 10.0292 352.043 12.4604 353.481 15.3654L354.377 14.9219L355.273 14.4784C353.711 11.3208 351.589 8.65831 348.91 6.50224L348.283 7.28125ZM354.377 14.9219L353.483 15.3691C354.903 18.2091 355.627 21.5047 355.627 25.2812H356.627H357.627C357.627 21.2453 356.852 17.6347 355.272 14.4747L354.377 14.9219ZM356.627 25.2812H355.627C355.627 28.1689 355.215 30.399 354.455 32.0311L355.362 32.4531L356.268 32.8752C357.196 30.8823 357.627 28.3311 357.627 25.2812H356.627ZM355.362 32.4531L354.458 32.025C353.665 33.699 352.665 35.0533 351.466 36.109L352.127 36.8594L352.788 37.6097C354.215 36.3529 355.371 34.7697 356.265 32.8812L355.362 32.4531ZM352.127 36.8594L351.466 36.109C350.224 37.2029 348.833 38.1215 347.288 38.8644L347.721 39.7656L348.154 40.6669C349.859 39.8472 351.405 38.8283 352.788 37.6097L352.127 36.8594ZM347.721 39.7656L347.288 38.8644C345.635 39.6591 344.014 40.5331 342.425 41.4863L342.94 42.3438L343.454 43.2012C344.991 42.2794 346.557 41.4347 348.154 40.6669L347.721 39.7656ZM342.94 42.3438L342.43 41.4832C340.82 42.4365 339.329 43.617 337.959 45.02L338.674 45.7188L339.389 46.4175C340.644 45.133 341.997 44.0635 343.449 43.2043L342.94 42.3438ZM338.674 45.7188L337.95 45.0287C336.534 46.5136 335.484 48.4774 334.763 50.8677L335.721 51.1562L336.678 51.4448C337.333 49.2726 338.251 47.6114 339.398 46.4088L338.674 45.7188ZM338.065 63.5312H337.065C337.065 64.7737 336.826 65.9149 336.355 66.9666L337.268 67.375L338.181 67.7834C338.773 66.4601 339.065 65.0388 339.065 63.5312H338.065ZM337.268 67.375L336.355 66.9666C335.874 68.0414 335.228 68.966 334.417 69.7493L335.112 70.4688L335.806 71.1882C336.807 70.2215 337.599 69.0836 338.181 67.7834L337.268 67.375ZM335.112 70.4688L334.392 69.7742C333.613 70.5808 332.696 71.2078 331.63 71.6565L332.018 72.5781L332.406 73.4998C333.715 72.9485 334.86 72.1692 335.831 71.1633L335.112 70.4688ZM332.018 72.5781L331.609 71.6653C330.555 72.1372 329.429 72.375 328.221 72.375V73.375V74.375C329.701 74.375 331.106 74.0816 332.426 73.4909L332.018 72.5781ZM328.221 73.375V72.375C326.979 72.375 325.837 72.1358 324.786 71.6653L324.377 72.5781L323.969 73.4909C325.292 74.0829 326.713 74.375 328.221 74.375V73.375ZM324.377 72.5781L324.765 71.6565C323.696 71.2064 322.758 70.5759 321.944 69.7616L321.237 70.4688L320.529 71.1759C321.528 72.1741 322.683 72.9498 323.989 73.4998L324.377 72.5781ZM321.237 70.4688L321.944 69.7616C321.159 68.9772 320.524 68.0486 320.04 66.9666L319.127 67.375L318.214 67.7834C318.793 69.0764 319.564 70.2103 320.529 71.1759L321.237 70.4688ZM319.127 67.375L320.049 66.9869C319.604 65.9304 319.377 64.782 319.377 63.5312H318.377H317.377C317.377 65.0305 317.65 66.4446 318.206 67.7631L319.127 67.375ZM318.377 63.5312H319.377C319.377 62.315 319.603 61.1629 320.052 60.0671L319.127 59.6875L318.202 59.3079C317.652 60.6496 317.377 62.06 317.377 63.5312H318.377ZM319.127 59.6875L320.044 60.0871C320.529 58.9745 321.164 58.0341 321.944 57.254L321.237 56.5469L320.529 55.8398C319.56 56.8097 318.788 57.963 318.211 59.2879L319.127 59.6875ZM321.237 56.5469L321.944 57.254C322.762 56.4353 323.708 55.7857 324.786 55.3034L324.377 54.3906L323.969 53.4778C322.672 54.0581 321.523 54.846 320.529 55.8398L321.237 56.5469ZM324.377 54.3906L324.786 55.3034C325.837 54.8329 326.979 54.5938 328.221 54.5938V53.5938V52.5938C326.713 52.5938 325.292 52.8858 323.969 53.4778L324.377 54.3906ZM328.221 53.5938V54.5938C329.429 54.5938 330.555 54.8316 331.609 55.3034L332.018 54.3906L332.426 53.4778C331.106 52.8872 329.701 52.5938 328.221 52.5938V53.5938ZM332.018 54.3906L331.609 55.3034C332.684 55.7842 333.609 56.4302 334.392 57.2415L335.112 56.5469L335.831 55.8523C334.864 54.8511 333.726 54.0595 332.426 53.4778L332.018 54.3906ZM335.112 56.5469L334.417 57.2663C335.224 58.0453 335.869 58.9817 336.351 60.0871L337.268 59.6875L338.185 59.2879C337.604 57.9558 336.812 56.7985 335.806 55.8275L335.112 56.5469ZM337.268 59.6875L336.351 60.0871C336.827 61.1784 337.065 62.3235 337.065 63.5312H338.065H339.065C339.065 62.0515 338.771 60.6341 338.185 59.2879L337.268 59.6875Z" fill="black" mask="url(#path-1-outside-1_1_4)"/>
</g>
<defs>
<filter id="filter0_d_1_4" x="0" y="0" width="361.627" height="82.375" filterUnits="userSpaceOnUse" color-interpolation-filters="sRGB">
<feFlood flood-opacity="0" result="BackgroundImageFix"/>
<feColorMatrix in="SourceAlpha" type="matrix" values="0 0 0 0 0 0 0 0 0 0 0 0 0 0 0 0 0 0 127 0" result="hardAlpha"/>
<feOffset dy="4"/>
<feGaussianBlur stdDeviation="2"/>
<feComposite in2="hardAlpha" operator="out"/>
<feColorMatrix type="matrix" values="0 0 0 0 0 0 0 0 0 0 0 0 0 0 0 0 0 0 0.25 0"/>
<feBlend mode="normal" in2="BackgroundImageFix" result="effect1_dropShadow_1_4"/>
<feBlend mode="normal" in="SourceGraphic" in2="effect1_dropShadow_1_4" result="shape"/>
</filter>
</defs>
</svg>
